<svg width="16" height="16" viewBox="0 0 16 16" fill="none" xmlns="http://www.w3.org/2000/svg">
<g clip-path="url(#clip0_7829_397497)">
<rect width="16" height="16" rx="4" fill="black"/>
<rect width="16" height="16" fill="black"/>
<path fill-rule="evenodd" clip-rule="evenodd" d="M8.21639 5.34795L9.81332 1.8376L9.02041 5.52178C8.76837 5.42507 8.49819 5.36496 8.21639 5.34795ZM8.1864 5.34631L6.7911 2.15705L6.99117 5.55817C7.31661 5.41963 7.67474 5.34297 8.05077 5.34297C8.09625 5.34297 8.14147 5.34409 8.1864 5.34631ZM6.97216 5.56635L5.17925 4.17186L6.18666 5.9852L2.15703 4.57483L5.56345 6.97936C5.83577 6.34779 6.34159 5.84053 6.97216 5.56635ZM5.55553 6.99794L1.55258 7.79853L5.36581 8.40062C5.351 8.28596 5.34336 8.16906 5.34336 8.05038C5.34336 7.6771 5.4189 7.32147 5.55553 6.99794ZM5.36718 8.4111L3.36592 9.61186L5.71267 9.4163C5.53555 9.11377 5.41547 8.77378 5.36718 8.4111ZM5.73435 9.45267L2.96295 11.8282L6.48799 10.2615C6.18475 10.0468 5.92762 9.77124 5.73435 9.45267ZM6.55435 10.307L5.17925 13.843L7.53058 10.7079C7.17547 10.6388 6.84516 10.5002 6.55435 10.307ZM7.62024 10.7237L7.99999 12.4326L8.37648 10.7384C8.2697 10.7512 8.161 10.7578 8.05077 10.7578C7.90425 10.7578 7.76045 10.7461 7.62024 10.7237ZM8.47975 10.724L10.6192 13.6415L9.62312 10.2547C9.29023 10.4925 8.9012 10.6569 8.47975 10.724ZM9.64454 10.2392L11.6267 11.6267L10.3052 9.5501C10.1273 9.81697 9.90329 10.0505 9.64454 10.2392ZM10.3631 9.45933L13.843 10.6193L10.6916 8.64968C10.626 8.94002 10.5137 9.21267 10.3631 9.45933ZM10.7014 8.60446L13.44 8.60446L10.7498 7.83583C10.7553 7.90662 10.7582 7.97817 10.7582 8.05038C10.7582 8.24027 10.7386 8.4256 10.7014 8.60446ZM10.7403 7.73798L13.843 6.18668L10.4455 6.78622C10.599 7.07626 10.7012 7.39751 10.7403 7.73798ZM10.4381 6.77219L13.44 3.97038L9.81332 5.9852L10.6192 4.17186L9.05912 5.53698C9.65076 5.77456 10.1391 6.21498 10.4381 6.77219Z" fill="white"/>
<circle cx="13.0371" cy="7.79852" r="0.201481" fill="white"/>
<circle cx="2.56" cy="9.41037" r="0.201481" fill="white"/>
<circle cx="12.2311" cy="11.0222" r="0.201481" fill="white"/>
<circle cx="8.14104" cy="12.9766" r="0.141037" fill="white"/>
<circle cx="4.1114" cy="4.51437" r="0.141037" fill="white"/>
<circle cx="8.14104" cy="3.30548" r="0.141037" fill="white"/>
<circle cx="5.25985" cy="3.24504" r="0.0805926" fill="white"/>
<circle cx="12.9162" cy="9.28948" r="0.0805926" fill="white"/>
<circle cx="12.1102" cy="3.648" r="0.0805926" fill="white"/>
<circle cx="4.91734" cy="11.7677" r="0.141037" fill="white"/>
</g>
<defs>
<clipPath id="clip0_7829_397497">
<rect width="16" height="16" rx="4" fill="white"/>
</clipPath>
</defs>
</svg>
