<svg width="520" height="208" viewBox="0 0 520 208" fill="none" xmlns="http://www.w3.org/2000/svg">
<path d="M451.106 142C449.129 142 447.775 140.007 448.502 138.17L475.648 69.5695C476.071 68.5014 477.103 67.7998 478.252 67.7998H489.704C490.856 67.7998 491.889 68.5045 492.31 69.576L519.26 138.176C519.982 140.013 518.628 142 516.654 142H504.477C503.307 142 502.26 141.272 501.852 140.176L488.539 104.37C487.973 102.886 487.408 101.296 486.843 99.5998C486.277 97.9038 485.712 96.1725 485.147 94.4058C484.581 92.5685 484.016 90.8018 483.451 89.1058C483.117 87.9128 482.815 86.7843 482.545 85.7202C482.35 84.9513 482.92 84.2051 483.713 84.1787C484.541 84.1511 485.168 84.9197 484.954 85.7201C484.628 86.9365 484.269 88.1357 483.875 89.3178C483.38 91.0138 482.85 92.7098 482.285 94.4058C481.79 96.0311 481.225 97.6918 480.589 99.3878C479.953 101.013 479.352 102.709 478.787 104.476L465.474 140.178C465.066 141.273 464.019 142 462.85 142H451.106ZM465.169 127.796C463.173 127.796 461.818 125.768 462.582 123.925L465.881 115.957C466.314 114.91 467.335 114.228 468.468 114.228H498.844C499.983 114.228 501.009 114.918 501.438 115.974L504.675 123.942C505.423 125.783 504.068 127.796 502.081 127.796H465.169Z" fill="currentColor"/>
<path d="M409.601 142C408.456 142 407.427 141.303 407.002 140.24L379.562 71.6397C378.826 69.8005 380.181 67.7998 382.161 67.7998H394.853C396.017 67.7998 397.06 68.5204 397.472 69.6094L411.098 105.642C411.946 107.832 412.652 109.74 413.218 111.366C413.854 112.991 414.384 114.51 414.808 115.924C415.302 117.337 415.726 118.786 416.08 120.27C416.375 121.255 416.688 122.343 417.018 123.535C417.243 124.346 416.63 125.146 415.788 125.146C414.962 125.146 414.352 124.376 414.551 123.575C414.99 121.808 415.429 120.212 415.868 118.786C416.433 116.878 417.069 114.934 417.776 112.956C418.482 110.906 419.366 108.468 420.426 105.642L433.535 69.6417C433.938 68.5358 434.989 67.7998 436.166 67.7998H448.503C450.487 67.7998 451.842 69.806 451.1 71.6461L423.464 140.246C423.037 141.306 422.009 142 420.867 142H409.601Z" fill="currentColor"/>
<path d="M335.93 143.06C330.277 143.06 325.118 142.106 320.454 140.198C315.79 138.29 311.727 135.605 308.264 132.142C304.801 128.679 302.116 124.616 300.208 119.952C298.3 115.288 297.346 110.165 297.346 104.582C297.346 98.9993 298.3 93.876 300.208 89.212C302.116 84.548 304.801 80.4847 308.264 77.022C311.727 73.5593 315.79 70.874 320.454 68.966C325.118 67.058 330.241 66.104 335.824 66.104C341.407 66.104 346.53 67.058 351.194 68.966C355.858 70.874 359.921 73.5593 363.384 77.022C366.847 80.4847 369.497 84.548 371.334 89.212C373.242 93.876 374.196 98.9993 374.196 104.582C374.196 110.094 373.242 115.217 371.334 119.952C369.497 124.616 366.847 128.679 363.384 132.142C359.921 135.605 355.858 138.29 351.194 140.198C346.53 142.106 341.442 143.06 335.93 143.06ZM335.824 126.1C338.721 126.1 341.371 125.57 343.774 124.51C346.247 123.45 348.367 121.966 350.134 120.058C351.971 118.079 353.385 115.783 354.374 113.168C355.363 110.553 355.858 107.691 355.858 104.582C355.858 101.473 355.363 98.6107 354.374 95.996C353.385 93.3813 351.971 91.12 350.134 89.212C348.367 87.2333 346.247 85.714 343.774 84.654C341.371 83.594 338.721 83.064 335.824 83.064C332.927 83.064 330.241 83.594 327.768 84.654C325.365 85.714 323.245 87.2333 321.408 89.212C319.571 91.12 318.157 93.3813 317.168 95.996C316.249 98.6107 315.79 101.473 315.79 104.582C315.79 107.691 316.249 110.589 317.168 113.274C318.157 115.889 319.571 118.15 321.408 120.058C323.245 121.966 325.365 123.45 327.768 124.51C330.241 125.57 332.927 126.1 335.824 126.1Z" fill="currentColor"/>
<path d="M217.412 142C215.865 142 214.612 140.746 214.612 139.2V70.5998C214.612 69.0534 215.865 67.7998 217.412 67.7998H229.305C230.197 67.7998 231.035 68.2243 231.563 68.943L268.023 118.616C268.615 119.423 267.937 120.544 266.947 120.394C266.46 120.32 266.077 119.938 266.006 119.45C265.709 117.415 265.467 115.462 265.28 113.592C265.068 111.472 264.856 109.387 264.644 107.338C264.502 105.288 264.361 103.204 264.22 101.084C264.149 98.9638 264.078 96.6671 264.008 94.1938C264.008 91.7205 264.008 89.0351 264.008 86.1378V70.5998C264.008 69.0534 265.261 67.7998 266.808 67.7998H278.698C280.244 67.7998 281.498 69.0534 281.498 70.5998V139.2C281.498 140.746 280.244 142 278.698 142H266.582C265.696 142 264.862 141.58 264.334 140.869L227.021 90.5987C226.11 89.3717 227.127 87.654 228.641 87.8618C229.428 87.9698 230.04 88.6019 230.121 89.3923C230.41 92.211 230.646 94.6595 230.83 96.7378C231.112 99.0698 231.324 101.154 231.466 102.992C231.678 104.829 231.819 106.49 231.89 107.974C231.96 109.458 231.996 110.942 231.996 112.426C232.066 113.839 232.102 115.429 232.102 117.196V139.2C232.102 140.746 230.848 142 229.302 142H217.412Z" fill="currentColor"/>
<path d="M32.0015 143.06C27.1255 143.06 22.7088 142.495 18.7515 141.364C14.8648 140.163 11.4022 138.467 8.3635 136.276C5.93901 134.472 3.71696 132.42 1.69735 130.121C0.804331 129.104 0.851397 127.588 1.74552 126.572L8.83847 118.515C10.0139 117.18 12.1146 117.272 13.2756 118.62C16.0902 121.888 18.9049 124.169 21.7195 125.464C25.3235 127.089 29.0335 127.902 32.8495 127.902C34.7575 127.902 36.4888 127.655 38.0435 127.16C39.5982 126.665 40.7995 125.959 41.6475 125.04C42.4955 124.051 42.9195 122.849 42.9195 121.436C42.9195 120.376 42.6368 119.422 42.0715 118.574C41.5768 117.726 40.8702 116.984 39.9515 116.348C39.0328 115.712 37.9375 115.147 36.6655 114.652C35.3935 114.087 34.0508 113.627 32.6375 113.274C31.2242 112.85 29.7755 112.497 28.2915 112.214C24.1928 111.295 20.6242 110.165 17.5855 108.822C14.5468 107.479 12.0028 105.854 9.9535 103.946C7.97483 101.967 6.49083 99.7413 5.5015 97.268C4.51217 94.724 4.0175 91.8973 4.0175 88.788C4.0175 85.4667 4.7595 82.428 6.2435 79.672C7.79817 76.8453 9.8475 74.4427 12.3915 72.464C15.0062 70.4147 18.0095 68.86 21.4015 67.8C24.7935 66.6693 28.3268 66.104 32.0015 66.104C36.8775 66.104 41.0468 66.634 44.5095 67.694C48.0428 68.6833 51.0462 70.132 53.5195 72.04C55.4451 73.4842 57.1481 75.1511 58.6284 77.0407C59.4601 78.1025 59.2806 79.608 58.3086 80.543L51.0562 87.5192C49.8728 88.6574 47.9801 88.522 46.7995 87.3809C45.9033 86.5146 44.9633 85.747 43.9795 85.078C42.2835 83.8767 40.4462 82.958 38.4675 82.322C36.5595 81.686 34.5808 81.368 32.5315 81.368C30.4115 81.368 28.5742 81.6507 27.0195 82.216C25.5355 82.7107 24.3695 83.4527 23.5215 84.442C22.6735 85.3607 22.2495 86.4913 22.2495 87.834C22.2495 89.0353 22.6028 90.06 23.3095 90.908C24.0162 91.756 24.9702 92.5333 26.1715 93.24C27.3728 93.876 28.7508 94.4413 30.3055 94.936C31.8602 95.36 33.4855 95.7133 35.1815 95.996C39.0682 96.7733 42.5662 97.798 45.6755 99.07C48.8555 100.342 51.5762 101.897 53.8375 103.734C56.1695 105.571 57.9362 107.762 59.1375 110.306C60.4095 112.779 61.0455 115.677 61.0455 118.998C61.0455 124.157 59.7735 128.538 57.2295 132.142C54.7562 135.675 51.3288 138.396 46.9475 140.304C42.6368 142.141 37.6548 143.06 32.0015 143.06Z" fill="currentColor"/>
<path d="M159.63 20.3501C159.33 20.6001 159.48 21.1501 159.88 21.1501C160.28 21.1501 160.53 20.7001 160.23 20.4001C159.98 20.1501 159.83 20.1501 159.68 20.3001L159.63 20.3501Z" fill="currentColor"/>
<path d="M152.63 21.5499C152.13 22.0499 152.13 22.4499 152.63 22.6999C153.13 22.9499 153.73 22.7999 154.08 22.1999C154.33 21.8499 154.33 21.6999 154.18 21.4499C153.88 21.0499 153.13 21.0999 152.63 21.5499Z" fill="currentColor"/>
<path d="M147.23 25.3499C146.83 25.7999 146.83 26.2499 147.23 26.5499C147.88 27.0499 148.98 26.1999 148.78 25.3999C148.63 24.8999 147.73 24.8999 147.28 25.3999L147.23 25.3499Z" fill="currentColor"/>
<path d="M164.08 26.3499C163.73 26.5499 164.03 27.1499 164.53 27.2499C164.93 27.3499 165.18 26.4999 164.83 26.2999C164.48 26.0999 164.43 26.0999 164.08 26.2999V26.3499Z" fill="currentColor"/>
<path d="M175.179 27.7002C174.629 28.2502 175.179 29.0002 175.829 28.5002C176.129 28.3002 176.129 28.1502 175.979 27.9002C175.729 27.4502 175.479 27.4002 175.179 27.6502V27.7002Z" fill="currentColor"/>
<path d="M103.58 28.7498C103.58 29.2998 103.98 29.3998 104.33 28.9498C104.63 28.5998 104.43 28.2998 103.93 28.2998C103.43 28.2998 103.58 28.4498 103.58 28.7998V28.7498Z" fill="currentColor"/>
<path d="M156.08 29.1498C156.08 29.3498 156.28 29.4998 156.43 29.4998C156.58 29.4998 156.73 29.3498 156.78 29.1498C156.78 28.8998 156.73 28.7998 156.43 28.7998C156.13 28.7998 156.03 28.8998 156.08 29.1498Z" fill="currentColor"/>
<path d="M191.73 29.4999C191.18 29.8999 191.18 30.4999 191.83 30.6499C192.83 30.8999 193.63 30.0499 193.03 29.3999C192.73 29.0999 192.28 29.0999 191.78 29.4999H191.73Z" fill="currentColor"/>
<path d="M105.479 31.05C105.279 31.3 105.279 31.4 105.529 31.65C105.829 31.95 105.879 31.95 106.179 31.65C106.429 31.4 106.429 31.25 106.229 31.05C106.079 30.9 105.929 30.75 105.829 30.75C105.729 30.75 105.579 30.9 105.429 31.05H105.479Z" fill="currentColor"/>
<path d="M172.63 31.3998C172.33 31.7498 172.53 32.2998 172.93 32.1998C173.13 32.1998 173.28 31.9498 173.28 31.6998C173.28 31.1498 172.98 30.9998 172.63 31.3998Z" fill="currentColor"/>
<path d="M140.93 31.65C140.68 31.9 140.78 32.3 141.13 32.25C141.28 32.25 141.43 32.05 141.43 31.9C141.43 31.6 141.08 31.4 140.88 31.6L140.93 31.65Z" fill="currentColor"/>
<path d="M180.53 33.1502C180.08 33.5502 180.03 33.6502 180.28 33.9002C180.78 34.5002 182.23 34.1002 182.23 33.3502C182.23 32.6002 181.68 32.7002 181.28 32.7002C180.88 32.7002 180.88 32.9002 180.53 33.1502Z" fill="currentColor"/>
<path d="M118.58 33.15C118.48 33.35 118.58 33.55 118.63 33.65C118.93 33.95 119.53 33.7 119.53 33.3C119.53 32.9 118.78 32.65 118.58 33.15Z" fill="currentColor"/>
<path d="M163.83 33.1501C162.48 33.9001 162.98 35.5501 164.53 35.5501C166.08 35.5501 166.08 35.1001 166.23 34.7001C166.78 33.3001 165.28 32.3501 163.83 33.2001V33.1501Z" fill="currentColor"/>
<path d="M152.43 35.0501C152.43 35.4501 152.53 35.5501 152.88 35.5001C153.13 35.5001 153.28 35.3001 153.28 35.0501C153.28 34.8001 153.13 34.6501 152.88 34.6001C152.53 34.5501 152.43 34.6001 152.43 35.0501Z" fill="currentColor"/>
<path d="M91.0795 38.1499C91.0295 38.2999 91.0795 38.5499 91.2295 38.5999C91.5295 38.7999 91.9795 38.4999 91.9795 38.0999C91.9795 37.6999 91.2295 37.7499 91.0795 38.0999V38.1499Z" fill="currentColor"/>
<path d="M179.33 40.0001C179.33 40.2501 179.53 40.4501 179.68 40.4501C179.83 40.4501 179.98 40.2501 180.03 40.0001C180.08 39.6501 180.03 39.6001 179.68 39.6001C179.33 39.6001 179.28 39.7001 179.33 40.0001Z" fill="currentColor"/>
<path d="M198.78 42.0501C198.28 42.5501 198.28 43.2501 198.68 43.6001C199.38 44.2001 200.48 42.8501 199.98 42.1001C199.68 41.6501 199.23 41.6001 198.78 42.1001V42.0501Z" fill="currentColor"/>
<path d="M94.8796 43.6998C94.7796 43.8498 94.8796 44.0998 94.9796 44.1998C95.2796 44.4998 95.8296 44.1998 95.7296 43.8498C95.6296 43.3998 95.0296 43.2998 94.8796 43.6998Z" fill="currentColor"/>
<path d="M96.6295 47.6501C96.2295 48.2001 96.2295 48.4501 96.6795 48.8501C97.0295 49.1501 97.0795 49.1501 97.6295 48.8501C98.2795 48.5001 98.5295 48.1001 98.2295 47.5501C97.9295 47.0501 97.0295 47.0501 96.6295 47.6001V47.6501Z" fill="currentColor"/>
<path d="M188.93 50.2002C188.53 50.5002 188.63 51.0002 189.13 51.2002C189.48 51.3502 189.98 50.9502 189.98 50.6002C189.98 50.2502 189.33 49.9502 188.93 50.2002Z" fill="currentColor"/>
<path d="M177.28 53.7998C177.38 54.3998 178.08 54.4498 178.08 53.8498C178.08 53.2498 177.93 53.4498 177.63 53.3998C177.23 53.3498 177.18 53.3998 177.23 53.7998H177.28Z" fill="currentColor"/>
<path d="M122.68 54.6499C122.38 55.2499 122.63 55.6999 123.28 55.6499C124.08 55.5499 124.43 54.9999 123.93 54.5999C123.43 54.2499 122.93 54.2499 122.73 54.5999L122.68 54.6499Z" fill="currentColor"/>
<path d="M168.28 55.25C168.03 55.65 168.33 56.05 168.88 56.05C169.43 56.05 169.53 55.55 169.23 55.2C168.93 54.8 168.53 54.85 168.28 55.25Z" fill="currentColor"/>
<path d="M72.7296 57.5002C72.5796 57.9002 72.9796 58.3002 73.2796 58.0002C73.5296 57.7502 73.3796 57.2002 73.0796 57.2002C72.7796 57.2002 72.8296 57.3502 72.7796 57.5002H72.7296Z" fill="currentColor"/>
<path d="M120.03 57.5499C119.63 57.7999 119.93 58.3499 120.43 58.2999C120.98 58.1999 121.18 57.3999 120.63 57.3999C120.08 57.3999 120.18 57.4999 120.03 57.5499Z" fill="currentColor"/>
<path d="M70.8795 57.95C70.1795 58.7 71.1795 59.5 71.9295 58.8C72.1295 58.6 72.2795 58.3 72.2295 58.05C72.1295 57.45 71.2795 57.4 70.8295 57.95H70.8795Z" fill="currentColor"/>
<path d="M173.23 59.4501C173.08 59.8001 173.08 60.0501 173.23 60.2501C173.78 61.0001 174.03 61.0001 174.43 60.3501C174.68 59.9501 174.73 59.7501 174.53 59.4001C174.23 58.7501 173.43 58.7501 173.18 59.4001L173.23 59.4501Z" fill="currentColor"/>
<path d="M84.9797 59.6998C84.8297 59.9998 85.2297 60.4498 85.5797 60.3498C85.9797 60.1998 85.9297 59.5498 85.4797 59.5498C85.0297 59.5498 85.0297 59.6498 84.9797 59.7498V59.6998Z" fill="currentColor"/>
<path d="M125.029 62.8501C124.829 63.3501 125.329 64.0001 125.779 63.8501C126.029 63.8001 126.279 63.7501 126.329 63.7501C126.379 63.7501 126.479 63.5001 126.429 63.2001C126.429 62.8001 126.279 62.6501 125.729 62.6001C125.329 62.6001 125.079 62.6001 125.029 62.8501Z" fill="currentColor"/>
<path d="M79.2297 70.4498C78.6297 71.1998 78.8797 72.4498 79.6797 72.6498C80.7797 72.8998 81.6297 71.7998 81.0297 70.7998C80.7297 70.1998 79.5297 69.9998 79.1797 70.4498H79.2297Z" fill="currentColor"/>
<path d="M65.9295 72.1002C65.6795 72.3502 65.7795 72.9002 66.0795 73.0002C66.4295 73.1502 66.8295 72.6502 66.6795 72.2502C66.5795 71.9502 66.1295 71.8502 65.9295 72.1002Z" fill="currentColor"/>
<path d="M59.5795 77.8501C59.4295 78.2501 59.8795 78.5501 60.2295 78.2501C60.4295 78.1001 60.4295 78.0001 60.2295 77.8001C59.9295 77.4501 59.6795 77.4501 59.5295 77.8001L59.5795 77.8501Z" fill="currentColor"/>
<path d="M56.3796 78.9502C56.1296 79.3502 56.1296 79.5002 56.2796 79.7502C56.8296 80.4002 58.0796 79.9002 57.9796 79.0502C57.9796 78.7002 57.7796 78.5502 57.3296 78.5502C56.8296 78.5002 56.6796 78.5502 56.3796 78.9502Z" fill="currentColor"/>
<path d="M71.9295 79.55C71.7295 79.8 71.7295 79.9 71.9295 80.1C72.3795 80.65 73.0295 80.25 72.7795 79.55C72.6795 79.4 72.5295 79.25 72.4295 79.25C72.3295 79.25 72.0795 79.4 71.9295 79.55Z" fill="currentColor"/>
<path d="M70.2795 80.6999C70.2295 80.8499 70.2795 81.1499 70.4795 81.2999C70.7795 81.5999 70.7795 81.5999 71.0795 81.2999C71.4795 80.8999 71.2795 80.3999 70.7795 80.3999C70.2795 80.3999 70.3295 80.5499 70.2795 80.6999Z" fill="currentColor"/>
<path d="M208.18 81.6501C207.58 82.0501 207.68 82.7501 208.38 82.8501C209.33 82.9501 209.88 82.0001 209.08 81.5501C208.58 81.3001 208.68 81.3001 208.13 81.6501H208.18Z" fill="currentColor"/>
<path d="M198.93 82.7502C198.13 83.3502 198.13 85.0002 198.93 85.3002C199.33 85.4502 200.13 84.8002 200.38 84.1502C200.78 83.0002 199.83 82.0502 198.93 82.7502Z" fill="currentColor"/>
<path d="M173.88 83.4C173.53 83.8 173.48 84.8 173.88 84.8C174.28 84.8 174.78 84.25 174.78 83.75C174.78 83.25 174.33 83 173.93 83.4H173.88Z" fill="currentColor"/>
<path d="M62.8295 84.5502C62.5295 84.6502 62.5295 85.3002 62.7295 85.4502C63.0295 85.6502 63.5295 85.3502 63.5295 85.0002C63.5295 84.6502 63.2295 84.4502 62.8295 84.5502Z" fill="currentColor"/>
<path d="M205.629 85.6499C205.079 86.2999 205.829 87.4499 206.529 86.9999C207.179 86.5999 206.929 85.3999 206.179 85.3999C205.429 85.3999 205.729 85.5499 205.629 85.6499Z" fill="currentColor"/>
<path d="M71.9296 86.6498C71.4296 87.2498 71.4296 87.4498 71.8296 88.0498C72.3796 88.8498 73.6296 88.2998 73.6296 87.1998C73.6296 86.0998 73.0796 86.1498 72.6296 86.1498C72.1796 86.1498 72.1296 86.3998 71.9296 86.6498Z" fill="currentColor"/>
<path d="M194.629 88.7502C194.379 89.4002 195.079 90.0502 195.579 89.6002C195.729 89.4502 195.879 89.1502 195.879 88.9002C195.879 88.5002 195.779 88.4502 195.329 88.4502C194.879 88.4502 194.679 88.5502 194.629 88.7502Z" fill="currentColor"/>
<path d="M59.6795 88.7499C59.4295 88.9999 59.5295 89.5499 59.7795 89.6499C60.1795 89.7999 60.5295 89.4999 60.4295 89.0999C60.3795 88.7499 59.8795 88.5499 59.6295 88.7499H59.6795Z" fill="currentColor"/>
<path d="M49.3795 97.5501C48.9795 97.9501 49.1795 98.4501 49.6795 98.3501C49.9795 98.3501 50.0795 98.1501 50.0795 97.8501C50.0795 97.2501 49.7795 97.1501 49.3795 97.5501Z" fill="currentColor"/>
<path d="M211.13 98.8001C210.73 99.1001 210.73 99.2501 210.88 99.7001C211.13 100.35 211.63 100.5 212.13 100.05C212.58 99.6501 212.53 99.0501 211.98 98.7001C211.63 98.4501 211.53 98.5001 211.13 98.8001Z" fill="currentColor"/>
<path d="M203.58 103.65C202.83 104.45 203.23 105.3 204.38 105.3C205.53 105.3 206.23 104.05 205.58 103.4C205.18 103 204.03 103.15 203.58 103.6V103.65Z" fill="currentColor"/>
<path d="M194.33 104.7C193.73 105.35 194.08 106.1 194.98 106.1C195.88 106.1 196.68 105.2 196.08 104.6C195.73 104.25 194.68 104.35 194.33 104.7Z" fill="currentColor"/>
<path d="M218.13 104.85C217.98 105 217.83 105.25 217.83 105.4C217.83 105.7 218.33 106.25 218.63 106.25C219.03 106.25 219.58 105.85 219.58 105.5C219.58 105.15 219.08 104.55 218.73 104.55C218.38 104.55 218.33 104.7 218.18 104.85H218.13Z" fill="currentColor"/>
<path d="M69.7295 108.05C69.0295 109.05 69.5795 110.7 70.5795 110.7C71.5795 110.7 71.9295 109.95 71.9295 109.15C71.9295 107.9 70.3795 107.1 69.7795 108.05H69.7295Z" fill="currentColor"/>
<path d="M214.33 112.2C214.13 112.5 214.63 113 215.08 112.95C215.68 112.85 215.63 112.15 214.98 112.05C214.73 112.05 214.43 112.05 214.33 112.2Z" fill="currentColor"/>
<path d="M71.3297 116.55C71.0297 116.95 71.3297 117.5 71.8297 117.5C72.3297 117.5 72.3797 116.25 71.6797 116.25C71.5797 116.25 71.4297 116.4 71.2797 116.55H71.3297Z" fill="currentColor"/>
<path d="M78.0296 117.55C77.9296 117.75 77.8296 118.2 77.8296 118.55C77.8296 119.4 78.1296 119.9 78.6796 119.9C79.2296 119.9 79.7296 119.25 79.7296 118.55C79.7296 117.45 78.4796 116.75 78.0296 117.55Z" fill="currentColor"/>
<path d="M212.23 118.55C212.08 119.1 212.48 119.55 213.08 119.45C213.48 119.45 213.58 119.3 213.58 118.8C213.58 118.3 213.48 118.25 212.98 118.15C212.48 118.15 212.33 118.15 212.28 118.5L212.23 118.55Z" fill="currentColor"/>
<path d="M204.83 120.95C204.43 121.85 205.58 122.6 206.28 121.9C206.43 121.75 206.58 121.5 206.58 121.35C206.58 120.5 205.18 120.2 204.83 120.95Z" fill="currentColor"/>
<path d="M191.73 122.65C191.38 123.05 191.63 123.55 192.13 123.5C192.43 123.5 192.58 123.3 192.58 122.95C192.58 122.4 192.08 122.2 191.73 122.65Z" fill="currentColor"/>
<path d="M172.43 124.6C172.13 125 172.28 125.55 172.73 125.6C173.03 125.65 173.18 125.55 173.28 125.2C173.48 124.4 172.93 124 172.38 124.6H172.43Z" fill="currentColor"/>
<path d="M90.7296 125.25C90.4796 125.65 90.8296 126.25 91.2796 126.15C91.8796 126.05 91.8796 125.15 91.2796 125.1C91.0796 125.1 90.8296 125.1 90.7296 125.25Z" fill="currentColor"/>
<path d="M215.83 125.35C215.68 125.75 215.93 126.05 216.43 126.05C216.93 126.05 216.93 125.95 216.83 125.6C216.73 125.1 215.98 124.9 215.78 125.35H215.83Z" fill="currentColor"/>
<path d="M98.1295 126.6C97.9795 126.85 98.1795 127.2 98.5295 127.2C98.8795 127.2 98.7795 127.05 98.7795 126.8C98.7795 126.4 98.3295 126.25 98.1295 126.6Z" fill="currentColor"/>
<path d="M92.1295 130.8C91.8295 131.35 92.0295 131.95 92.6295 132.2C93.4295 132.6 93.9295 131.7 93.4795 130.8C93.2295 130.3 92.4295 130.3 92.1295 130.8Z" fill="currentColor"/>
<path d="M87.6296 133.65C86.8296 134.15 87.0296 135.9 87.9296 136.1C88.6296 136.25 89.0296 135.95 89.0796 135.1C89.1796 134.05 88.3296 133.2 87.6296 133.6V133.65Z" fill="currentColor"/>
<path d="M73.9297 136.8C73.8797 136.9 73.9297 137.15 74.1297 137.3C74.4297 137.6 74.4297 137.6 74.7297 137.3C75.0797 136.95 74.9297 136.55 74.4297 136.55C73.9297 136.55 74.0297 136.65 73.9297 136.75V136.8Z" fill="currentColor"/>
<path d="M106.18 138.35C106.08 138.5 106.18 138.7 106.48 138.75C106.93 138.9 107.33 138.6 107.13 138.3C106.93 138 106.33 138.05 106.18 138.35Z" fill="currentColor"/>
<path d="M69.5797 138.6C69.3297 138.9 69.4797 139.25 69.8297 139.25C70.1797 139.25 70.1797 139.15 70.1297 138.9C70.0797 138.55 69.7297 138.4 69.5297 138.55L69.5797 138.6Z" fill="currentColor"/>
<path d="M194.43 140.35C194.13 141.1 195.13 141.65 195.58 140.95C195.73 140.7 195.73 140.55 195.58 140.35C195.28 139.95 194.63 139.95 194.48 140.35H194.43Z" fill="currentColor"/>
<path d="M67.1296 140.55C66.6796 140.95 66.5796 142.15 66.9796 142.6C67.3296 143 68.0796 142.95 68.3296 142.5C68.7296 141.75 68.4796 140.55 67.8796 140.3C67.7296 140.25 67.3796 140.3 67.1796 140.5L67.1296 140.55Z" fill="currentColor"/>
<path d="M70.5797 142.5C70.5797 143 70.9297 143.2 71.2797 142.85C71.6297 142.5 71.4297 142.15 70.9297 142.15C70.4297 142.15 70.5797 142.3 70.5797 142.5Z" fill="currentColor"/>
<path d="M95.9795 144.1C95.9795 144.35 96.1795 144.55 96.3295 144.55C96.7295 144.55 96.6795 143.8 96.2795 143.75C95.9795 143.7 95.9295 143.75 95.9795 144.15V144.1Z" fill="currentColor"/>
<path d="M202.73 146.25C202.48 146.55 202.63 146.9 202.98 146.9C203.33 146.9 203.33 146.8 203.28 146.55C203.23 146.2 202.88 146.05 202.68 146.2L202.73 146.25Z" fill="currentColor"/>
<path d="M89.2795 150.85C88.7795 151.4 89.8295 152.05 90.3795 151.5C90.5295 151.35 90.5295 151.2 90.2795 150.95C89.8795 150.55 89.5795 150.5 89.2795 150.9V150.85Z" fill="currentColor"/>
<path d="M155.23 151.25C154.98 151.5 155.08 152.25 155.38 152.35C155.88 152.5 156.43 152.1 156.38 151.65C156.33 151.25 155.53 150.95 155.23 151.25Z" fill="currentColor"/>
<path d="M175.23 151.55C174.33 152.3 174.83 153.5 175.93 153.15C176.98 152.85 177.38 151.75 176.63 151.35C176.08 151.05 175.78 151.1 175.18 151.55H175.23Z" fill="currentColor"/>
<path d="M77.9296 151.8C77.8296 151.95 77.9296 152.2 78.0296 152.3C78.3296 152.6 78.8796 152.3 78.7796 151.95C78.6796 151.5 78.0796 151.4 77.9296 151.8Z" fill="currentColor"/>
<path d="M70.2797 154.9C69.9797 155 69.9797 155.45 70.2797 155.7C70.4797 155.85 70.6297 155.85 70.8797 155.65C71.1797 155.4 71.1797 155.35 70.9797 155.05C70.7297 154.7 70.6297 154.7 70.2797 154.9Z" fill="currentColor"/>
<path d="M155.98 156.55C155.58 157.15 155.58 157.5 156.08 158.1C156.53 158.7 156.68 158.7 157.08 158.3C157.53 157.85 157.48 156.75 156.98 156.4C156.43 156 156.33 156 155.98 156.5V156.55Z" fill="currentColor"/>
<path d="M113.58 156.6C113.48 156.95 113.83 157.3 114.18 157.2C114.28 157.2 114.38 156.95 114.43 156.7C114.48 156.35 114.43 156.3 114.08 156.3C113.73 156.3 113.63 156.45 113.58 156.6Z" fill="currentColor"/>
<path d="M180.53 157.15C179.93 158.1 180.58 158.95 181.53 158.4C182.63 157.75 182.58 156.85 181.43 156.7C180.98 156.7 180.78 156.75 180.53 157.1V157.15Z" fill="currentColor"/>
<path d="M179.28 158.65C178.93 159.3 179.38 160 180.03 159.95C180.68 159.85 180.83 159.2 180.33 158.65C179.93 158.15 179.53 158.2 179.28 158.65Z" fill="currentColor"/>
<path d="M100.779 160.25C100.629 160.6 100.829 160.9 101.279 160.9C101.729 160.9 101.829 160.55 101.729 160.15C101.629 159.8 100.929 159.85 100.779 160.2V160.25Z" fill="currentColor"/>
<path d="M120.83 160.25C120.63 160.75 120.93 161.1 121.38 161.1C121.83 161.1 122.08 160.75 121.83 160.3C121.63 159.9 120.929 159.85 120.779 160.3L120.83 160.25Z" fill="currentColor"/>
<path d="M147.58 160.6C147.18 160.9 147.28 161.45 147.73 161.75C147.98 161.9 148.13 161.85 148.48 161.55C148.93 161.15 148.88 160.85 148.28 160.55C148.03 160.45 147.83 160.45 147.58 160.65V160.6Z" fill="currentColor"/>
<path d="M130.529 161.15C130.179 161.5 130.229 161.95 130.679 162.4C131.379 163.05 132.179 162.05 131.479 161.3C131.079 160.9 130.829 160.85 130.479 161.15H130.529Z" fill="currentColor"/>
<path d="M185.93 161.6C185.58 161.95 185.53 162.1 185.83 162.4C186.18 162.75 186.73 162.65 186.93 162.25C187.08 161.95 187.03 161.8 186.83 161.6C186.48 161.2 186.28 161.2 185.93 161.6Z" fill="currentColor"/>
<path d="M94.9797 162.95C94.5797 163.95 95.5297 164.9 96.2297 164.35C96.5797 164.05 96.6297 163 96.2797 162.65C95.8797 162.25 95.1797 162.4 94.9797 162.95Z" fill="currentColor"/>
<path d="M130.53 164.5C130.03 164.85 129.98 166.1 130.43 166.55C130.83 166.95 131.58 166.95 131.83 166.5C132.13 165.9 132.08 165.05 131.68 164.7C131.08 164.2 130.93 164.15 130.53 164.45V164.5Z" fill="currentColor"/>
<path d="M190.78 164.45C190.58 164.7 190.58 164.8 190.93 165.2C191.33 165.6 191.38 165.6 191.68 165.3C191.93 165.05 191.98 164.9 191.83 164.65C191.53 164.2 191.13 164.15 190.78 164.5V164.45Z" fill="currentColor"/>
<path d="M173.73 165.55C173.23 165.95 173.08 166.65 173.48 167.05C173.88 167.45 174.93 167.3 175.43 166.8C176.03 166.25 176.03 165.85 175.48 165.5C174.88 165.1 174.33 165.1 173.73 165.6V165.55Z" fill="currentColor"/>
<path d="M148.78 165.75C148.23 166.15 148.33 167.3 148.93 167.5C149.73 167.85 150.48 166.55 149.88 165.9C149.48 165.45 149.23 165.4 148.78 165.75Z" fill="currentColor"/>
<path d="M139.73 168.85C139.58 169.3 139.78 169.7 140.23 169.7C140.68 169.7 140.93 169.2 140.63 168.85C140.33 168.5 139.88 168.5 139.73 168.85Z" fill="currentColor"/>
<path d="M102.63 169.05C102.33 169.4 102.33 170.4 102.63 170.8C103.03 171.3 103.68 171.15 103.93 170.45C104.33 169.35 103.28 168.25 102.63 169.05Z" fill="currentColor"/>
<path d="M134.98 169.15C134.83 169.45 135.03 169.75 135.38 169.75C135.73 169.75 135.63 169.6 135.63 169.4C135.53 169 135.18 168.85 134.98 169.15Z" fill="currentColor"/>
<path d="M158.68 169.95C158.48 170.05 158.33 170.35 158.33 170.6C158.33 171.65 160.03 172.1 160.48 171.2C160.68 170.8 160.63 170.65 160.23 170.25C159.73 169.75 159.23 169.65 158.68 170V169.95Z" fill="currentColor"/>
<path d="M126.78 170.65C126.48 170.95 126.68 171.65 127.03 171.75C127.63 171.95 128.08 171.45 127.78 170.9C127.58 170.5 126.98 170.35 126.73 170.65H126.78Z" fill="currentColor"/>
<path d="M188.129 172.15C187.979 172.55 188.379 172.95 188.679 172.65C188.929 172.4 188.779 171.85 188.479 171.85C188.179 171.85 188.229 172 188.179 172.15H188.129Z" fill="currentColor"/>
<path d="M114.88 172.3C114.58 172.65 114.78 173.3 115.18 173.45C115.63 173.6 116.03 173.2 115.98 172.65C115.88 172.05 115.28 171.9 114.88 172.3Z" fill="currentColor"/>
<path d="M158.98 172.25C158.78 172.6 159.33 173.05 159.73 172.9C159.88 172.8 160.03 172.65 159.98 172.45C159.88 172.1 159.18 171.95 158.98 172.25Z" fill="currentColor"/>
<path d="M189.78 172.8C189.23 173.35 189.33 174.4 189.93 174.45C190.83 174.6 191.48 173.5 190.98 172.8C190.63 172.3 190.28 172.3 189.78 172.8Z" fill="currentColor"/>
<path d="M161.829 175.4C161.529 175.85 161.529 175.9 161.829 176.4C162.279 177.05 162.629 177.15 163.179 176.8C163.729 176.4 163.829 175.75 163.329 175.3C162.829 174.85 162.229 174.9 161.829 175.45V175.4Z" fill="currentColor"/>
<path d="M180.38 175.2C180.08 175.9 180.88 176.5 181.38 176C181.63 175.75 181.63 175.6 181.48 175.35C181.23 174.95 180.53 174.85 180.38 175.2Z" fill="currentColor"/>
<path d="M130.53 176.85C130.53 177.15 130.73 177.3 130.98 177.3C131.53 177.3 131.48 176.55 130.93 176.5C130.53 176.45 130.48 176.5 130.53 176.9V176.85Z" fill="currentColor"/>
<path d="M183.08 179C182.93 179.4 183.38 180 183.78 179.85C184.28 179.65 184.08 178.85 183.58 178.8C183.33 178.8 183.13 178.85 183.08 179Z" fill="currentColor"/>
<path d="M149.78 180.15C149.48 180.5 149.48 180.65 149.93 180.9C150.43 181.15 150.93 180.9 150.88 180.45C150.83 180 150.18 179.8 149.83 180.2L149.78 180.15Z" fill="currentColor"/>
<path d="M160.03 183.6C159.88 183.95 159.88 184.2 160.18 184.8C160.88 186.15 161.83 186.2 161.93 184.8C162.03 183.5 160.48 182.55 160.03 183.6Z" fill="currentColor"/>
<path d="M125.48 184.05C125.23 184.25 125.33 184.85 125.63 185.15C126.18 185.75 126.68 185.1 126.38 184.25C126.28 183.95 125.73 183.85 125.48 184.1V184.05Z" fill="currentColor"/>
<path d="M159.18 152.45C158.03 152.15 157.48 150.85 158.33 150.35C158.53 150.2 158.73 150 158.73 149.95C158.73 149.7 156.28 143.6 154.23 138.65C153.58 138.95 152.93 139.25 152.28 139.5C154.13 144.1 156.03 148.9 157.23 152.1C159.98 159.45 164.18 169.65 167.43 176.7C168.73 179.6 169.13 180.55 168.93 180.6C168.43 180.7 168.73 181.5 169.23 181.55C169.63 181.55 169.88 181.9 170.53 183.25C170.98 184.15 171.38 184.85 171.43 184.8C171.58 184.65 168.68 176.55 164.28 164.75C159.98 153.3 159.68 152.6 159.23 152.45H159.18Z" fill="currentColor"/>
<path d="M138.079 65.8001C138.329 65.8001 138.629 65.8001 138.879 65.8001C138.979 64.7001 139.029 64.3001 139.179 64.3001C139.479 64.3001 139.829 63.6501 139.679 63.4001C139.579 63.3001 139.429 63.1501 139.279 63.1501C138.979 63.0501 138.929 57.8001 139.179 52.2001L139.329 49.2001L138.729 49.1001C138.429 49.0001 138.029 48.7501 137.829 48.5001C137.529 48.0501 137.529 48.0001 137.829 47.5501C137.979 47.3001 138.379 47.0001 138.729 46.9501C139.029 46.9001 139.279 46.8501 139.279 46.8001C139.279 46.8001 139.429 42.5501 139.579 37.4501C139.829 28.4001 139.779 24.6501 139.329 22.6001L139.179 21.8501L138.929 22.9001C138.429 25.1001 138.129 28.0001 137.879 33.3501C137.729 36.4001 137.529 39.7501 137.479 40.7501C137.429 41.6001 137.329 53.9501 137.229 65.8501C137.529 65.8501 137.829 65.8501 138.129 65.8501L138.079 65.8001Z" fill="currentColor"/>
<path d="M122.93 44.6498C123.63 49.2498 124.23 52.1998 125.58 57.7998C126.28 60.4998 127.08 64.0498 127.43 65.6498C127.53 66.2498 127.63 66.7498 127.73 67.1498C128.93 66.7998 130.18 66.5498 131.43 66.2998V66.2498C131.43 66.2498 131.43 66.2498 131.43 66.2998C132.83 66.0498 134.28 65.8998 135.73 65.7998C135.73 65.6998 135.63 65.5998 135.58 65.5498C135.33 65.2498 135.33 65.1498 135.58 64.8998C135.78 64.6498 135.78 63.9498 135.68 61.8498C135.53 58.9998 134.68 43.6998 134.58 42.0998C134.53 41.3998 134.58 41.0998 134.83 40.8498C135.28 40.4498 135.28 40.0498 134.83 39.7998C134.33 39.4998 134.33 39.2998 135.03 38.6998C135.83 38.0498 136.03 37.3998 135.78 36.5998C135.58 36.0498 134.78 35.1498 134.28 34.9498C134.18 34.9498 134.03 33.5498 133.98 31.8998L133.83 28.9498L134.48 29.0498C135.23 29.1498 135.83 28.5998 135.73 27.8998C135.63 27.1998 134.58 27.1498 134.08 27.8998L133.68 28.3998V26.7998C133.68 23.0998 132.78 20.7498 132.03 22.5498C131.68 23.3998 131.63 26.3998 131.93 31.5998L132.13 34.8998L131.58 35.4498C130.38 36.5998 130.58 37.7498 132.18 38.9998C132.43 39.1998 132.58 40.4998 133.08 47.8498C133.38 52.5998 133.78 58.0498 133.93 59.9498C134.33 65.0998 134.28 66.2998 133.68 65.5498C133.53 65.3998 132.98 62.3998 132.43 58.8998C131.88 55.3998 130.48 46.9498 129.38 40.1498C127.53 28.8998 126.78 24.7998 125.98 22.2998C125.73 21.4498 125.68 21.5498 125.68 24.4498C125.68 28.4998 125.98 31.6998 127.78 44.2998C128.33 47.9998 128.73 51.0998 128.73 51.0998C128.73 51.0998 128.48 51.0998 128.18 51.0998C127.18 50.9498 126.43 52.1998 127.13 52.7998C127.33 52.9498 127.68 52.9998 128.23 52.9498L129.03 52.8498L129.38 55.2998C129.83 58.4998 129.88 58.5998 130.28 58.5998C130.68 58.5998 130.63 58.7498 130.63 59.1998C130.63 59.6498 130.58 59.7998 130.23 59.6998C129.93 59.5998 129.88 59.6998 129.98 60.1998C130.23 61.2498 130.13 62.3498 129.83 62.3498C129.53 62.3498 129.43 61.9998 129.28 61.5998C129.03 60.9498 128.93 60.8498 128.48 60.8998C128.23 60.8998 127.88 60.7998 127.78 60.6498C127.43 60.2498 127.83 59.5998 128.43 59.5998C129.03 59.5998 129.03 59.3998 128.33 58.7498C128.03 58.4498 127.58 57.7498 127.38 57.1998C126.78 55.6998 124.98 49.2498 123.83 44.4498C122.63 39.4498 121.63 35.7498 121.53 35.8998C121.48 35.8998 121.68 37.1998 121.93 38.7498C122.18 40.2498 122.63 42.9498 122.88 44.7498L122.93 44.6498ZM129.23 50.0498C128.43 49.8498 128.73 48.7998 129.63 48.7998C130.53 48.7998 130.13 48.8998 130.28 49.0498C130.83 49.5998 130.13 50.2998 129.23 50.0998V50.0498Z" fill="currentColor"/>
<path d="M120.88 56.15L121.53 58.25L121.03 58.65C120.53 59.05 120.53 59.15 120.78 59.4C120.93 59.6 121.18 59.7 121.48 59.65C121.88 59.55 121.93 59.65 122.23 60.65C122.38 61.25 123.03 63.2 123.58 64.95C123.98 66.25 124.33 67.35 124.63 68.3C125.13 68.1 125.63 67.95 126.13 67.8C125.33 65.15 124.18 61.25 122.93 57.2C120.93 50.65 119.38 45.3 119.48 45.25C119.58 45.25 119.83 45 120.08 44.8C120.48 44.45 120.53 44.45 120.18 44.15C119.98 44 119.63 43.9 119.38 44C119.08 44.1 118.93 44 118.88 43.85C118.88 43.7 118.38 42.25 117.93 40.6C116.58 36.05 112.78 24.45 112.73 24.65C112.63 24.85 114.98 34.25 116.98 42.05C118.33 47.3 119.93 52.95 120.98 56.2L120.88 56.15Z" fill="currentColor"/>
<path d="M96.5296 27.5502C99.5796 34.3502 106.68 48.8502 110.43 55.9002C111.48 57.8502 112.33 59.5002 112.33 59.5502C112.33 59.6002 112.08 59.7002 111.83 59.7502C111.53 59.8002 111.18 60.0002 110.98 60.1502C110.73 60.4002 110.48 60.1502 108.83 57.6002C104.63 51.2002 96.2296 39.6002 96.0296 39.8002C95.8796 39.9502 102.88 51.5502 111.88 66.0502C113.88 69.2502 114.43 70.3002 114.28 70.5002C114.13 70.7002 114.18 70.8002 114.58 71.0002C114.88 71.1502 115.53 71.9002 116.08 72.6502C117.38 71.7002 118.78 70.9002 120.18 70.1002C116.38 62.6002 110.38 50.6502 108.08 46.2502C98.7796 28.2502 89.4796 11.0002 90.2796 13.3002C90.4296 13.7002 94.9296 24.0002 96.5296 27.5502ZM116.48 70.5502C116.58 70.3002 116.63 70.3002 116.88 70.4502C117.03 70.5502 117.13 70.8002 117.13 70.9502C117.13 71.2502 116.63 71.3002 116.48 71.0502C116.38 70.9502 116.43 70.7502 116.48 70.5502ZM113.33 62.9502L113.78 62.5502L114.13 63.3502C114.38 63.8502 114.43 64.2002 114.28 64.3002C113.98 64.6002 113.48 64.4002 113.13 63.8502C112.83 63.3502 112.83 63.3002 113.28 62.9502H113.33Z" fill="currentColor"/>
<path d="M102.08 56.25C99.0296 52.4 94.7796 47.25 94.6796 47.25C93.9296 47.25 98.1296 53.55 106.98 65.65C109.03 68.45 111.43 71.7 112.28 72.85C112.93 73.7 113.33 74.25 113.58 74.65C114.03 74.25 114.53 73.85 115.03 73.5C111.68 68.65 107.83 63.5 102.08 56.25Z" fill="currentColor"/>
<path d="M100.83 65.1502C100.98 65.0002 101.13 64.8502 101.18 64.9002C101.18 64.9002 102.93 67.0502 105.03 69.6002C107.13 72.1502 109.13 74.6002 109.48 75.1502C109.63 75.4002 110.23 76.0502 111.08 76.9502C111.73 76.3002 112.43 75.7002 113.13 75.0502C112.63 74.5502 111.63 73.4502 109.58 71.1002C108.08 69.4002 106.43 67.5502 105.93 66.9502C105.23 66.2002 105.03 65.8002 105.18 65.6502C105.53 65.3002 105.18 64.8002 104.68 64.9002C104.13 65.0502 102.93 63.6502 94.2297 53.1502C89.9797 48.0002 88.6797 46.3002 88.8797 46.2002C89.0797 46.1002 89.1297 46.0502 88.9797 45.9502C88.8297 45.8502 88.6797 45.8502 88.5297 45.9502C88.4297 46.0002 88.0297 45.7502 87.7297 45.3502C86.4797 43.8502 75.3797 31.2002 74.3797 30.2002C74.1464 29.9336 74.0964 29.9669 74.2297 30.3002C75.7297 33.2502 83.2797 43.1002 94.9797 57.3502C99.4297 62.7002 99.9297 63.4502 99.6797 63.7002C99.3797 64.0502 99.3297 64.8502 99.6797 65.2002C99.9797 65.5502 100.53 65.5002 100.88 65.1002L100.83 65.1502Z" fill="currentColor"/>
<path d="M121.63 69.5C122.23 69.2 122.83 68.95 123.48 68.7C123.33 68.4 123.18 68.05 123.03 67.7C122.13 65.65 122.13 65.6 122.48 65.4C123.13 65.1 122.88 64.3 122.13 64.1C121.58 63.95 121.48 63.8 120.83 62.05C116.23 50.05 111.13 37.15 110.78 36.8C110.58 36.55 110.73 37.45 111.33 39.9C112.33 44.1 117.68 59.15 121.63 69.5Z" fill="currentColor"/>
<path d="M98.8796 69.3999C98.7796 70.1499 99.2296 70.4499 99.7796 70.1499C100.03 69.9999 101.53 71.3499 108.08 77.7999C108.48 78.1999 108.88 78.5999 109.28 78.9499C109.68 78.4999 110.03 78.0999 110.43 77.6499C101.23 68.0999 79.5296 46.4999 78.0296 45.4999C76.7796 44.6999 76.1296 44.4499 76.1296 44.7999C76.1296 45.5999 77.3296 46.8999 91.1796 60.8999C98.6796 68.4499 98.8796 68.7499 98.8296 69.3499L98.8796 69.3999Z" fill="currentColor"/>
<path d="M108.33 80.0499C102.38 74.6999 99.7296 72.5499 99.3296 72.6499C98.8796 72.7999 98.3796 72.3999 98.5296 71.9499C98.6296 71.6999 97.7296 70.8499 94.8296 68.4999C92.7296 66.7999 91.0296 65.3499 91.0296 65.2999C91.0296 65.2499 91.1796 65.0999 91.3296 64.9499C91.6796 64.5999 91.6796 64.2999 91.3296 63.7999C91.0796 63.4999 90.9796 63.4499 90.6796 63.6499C90.4796 63.7499 90.3296 64.0499 90.2796 64.2999C90.2296 64.6999 90.1796 64.6499 89.3296 63.9499C88.8296 63.5499 85.6296 60.8499 82.1796 57.9999C74.2796 51.3999 70.4296 48.2999 69.0296 47.3499C67.7296 46.4999 65.7296 45.5999 65.5296 45.7499C65.2796 45.9499 66.4296 47.5999 67.6796 48.9999C69.1296 50.5499 75.9796 56.2999 85.4796 63.9999C92.6796 69.8499 93.8296 70.7999 93.7796 71.0999C93.6296 71.4999 93.8796 71.8499 94.1796 71.5999C94.4796 71.3499 98.9796 74.8999 107.08 81.6999C107.48 81.1499 107.88 80.5999 108.33 80.0499Z" fill="currentColor"/>
<path d="M105.83 83.4998C104.93 82.8498 104.08 82.2498 103.28 81.5998L100.23 79.2498L99.8296 79.6498C99.1296 80.3498 98.0296 79.4998 98.6296 78.7498C98.7796 78.5998 98.7796 78.3998 98.6796 78.2998C98.3296 77.9498 89.8296 72.3498 87.1796 70.6498C79.3796 65.7498 69.0796 59.7498 69.0796 60.1498C69.0796 60.5498 74.7796 64.4498 86.2796 72.2998C90.8296 75.3998 95.9296 78.9498 97.6796 80.1998C100.33 82.1498 102.58 83.6998 104.83 85.1998C105.13 84.6498 105.48 84.0998 105.83 83.5498V83.4998Z" fill="currentColor"/>
<path d="M96.6796 84.4499C96.7796 84.4499 96.8796 84.3499 96.9296 84.1999C97.0796 83.8499 97.6796 84.1999 97.5796 84.5499C97.4796 84.8499 98.0296 85.1999 100.48 86.4499C101.93 87.1999 102.83 87.6999 103.33 88.0999C103.53 87.6499 103.78 87.1499 104.03 86.6999C98.5796 83.7999 88.9796 78.6499 78.0296 72.6999C68.3796 67.4499 64.0296 65.1999 59.4796 63.0999C55.2296 61.1499 48.8796 58.3999 48.6296 58.3999C48.3796 58.3999 48.7796 58.6499 49.2796 58.9499C50.9796 59.9999 65.0796 67.7499 81.0296 76.2999C86.5796 79.2999 96.5296 84.4499 96.7296 84.4499H96.6796Z" fill="currentColor"/>
<path d="M103.08 88.5999C100.78 87.8999 92.1796 84.6499 74.2296 77.5499C54.7296 69.8999 52.6796 69.1499 52.3296 69.6499C52.0796 69.9999 53.8796 71.2499 56.3296 72.4499C58.7796 73.6499 61.7296 74.8499 68.5296 77.4999C70.4296 78.2499 74.6296 79.8499 77.8796 81.0999C81.1296 82.3499 86.4296 84.3999 89.6796 85.6499C92.8796 86.8999 95.5296 87.9499 95.5296 88.0499C95.5296 88.3999 91.9796 87.6499 84.3796 85.7999C76.5796 83.8999 74.3796 83.3999 72.6296 83.2999C70.9296 83.1499 70.6296 83.3999 71.6796 84.0499C73.8796 85.5999 76.6796 86.4499 99.7296 92.6999C100.33 92.8499 100.88 92.9999 101.43 93.1499C101.88 91.5499 102.48 90.0499 103.13 88.5499L103.08 88.5999Z" fill="currentColor"/>
<path d="M101.129 94.2502C98.2295 93.6002 95.3795 93.0502 92.5295 92.5502C89.1295 91.9502 83.0295 90.8002 78.9295 90.0002C74.8295 89.1502 70.8795 88.3502 70.1795 88.2502C68.0295 87.9502 64.8295 87.8002 65.0295 88.0002C65.2795 88.2502 68.5295 89.4502 70.5295 90.0502C72.7295 90.7002 83.8295 93.1002 91.1795 94.5502C98.3295 95.9502 99.5295 96.3002 99.6295 96.7502C99.6795 97.0502 99.3795 97.1002 96.0795 97.1002C92.7795 97.1002 81.0795 96.5502 72.0295 95.9502C68.4295 95.7002 58.9295 95.0502 57.6295 94.9002C56.7295 94.8002 56.7295 94.8002 57.3795 95.0002C58.5295 95.3002 65.6295 96.3002 70.4795 96.8002C72.9295 97.1002 75.2795 97.4002 75.6295 97.5002C76.0295 97.6002 76.4295 97.6502 76.5295 97.6002C76.6295 97.5502 78.0295 97.6002 79.6295 97.7502C81.2295 97.9002 85.5795 98.2502 89.2295 98.5002C93.5295 98.8002 96.8795 99.1002 100.179 99.3502C100.379 97.6002 100.729 95.9002 101.129 94.2002V94.2502Z" fill="currentColor"/>
<path d="M81.1795 102.2C92.1295 102.3 96.6295 102.45 97.1295 102.8C97.6295 103.15 96.3795 103.35 93.9295 103.35C92.4795 103.35 90.4295 103.45 89.4295 103.6C88.4295 103.7 85.4795 104 82.8295 104.2C72.2295 105.05 57.2295 106.7 53.9295 107.3C52.7795 107.5 53.0795 107.55 57.6295 107.6C60.4295 107.6 65.1795 107.5 68.4795 107.35C78.7795 106.85 91.3295 106.1 92.5295 106L93.6795 105.9V106.55C93.6795 107.1 93.7795 107.2 94.2295 107.25C94.6796 107.3 94.7295 107.25 94.7295 106.75C94.7295 106.25 94.6296 106.15 94.4795 106.1C94.1296 106 95.2795 105.85 99.7795 105.5C99.7795 105 99.7795 104.55 99.7795 104.05C99.7795 103.15 99.7795 102.25 99.8795 101.4C98.6795 101.4 96.8795 101.3 94.1795 101.2C86.6295 100.85 86.4295 100.85 86.1795 101.2C85.8295 101.7 85.2295 101.7 85.2295 101.2C85.2295 100.7 84.9795 100.85 81.8295 100.7C69.1295 100.2 43.1795 100 42.9795 100.35C42.8295 100.55 47.9295 101.1 53.5295 101.45C60.6795 101.9 68.2295 102.1 81.0795 102.25L81.1795 102.2Z" fill="currentColor"/>
<path d="M99.9796 107.05C97.6796 107.35 94.9296 107.75 92.6296 108.1C88.8796 108.7 85.4796 109.15 85.0796 109.15C84.6796 109.15 84.1296 109.25 83.8796 109.35C83.6296 109.45 77.5296 110.45 70.2796 111.55C57.1796 113.55 51.0796 116 51.0796 116C51.0796 116 57.0296 116.25 69.7296 114.2C75.9296 113.2 81.4796 112.35 82.0296 112.3C82.8296 112.3 83.1796 112.3 83.5296 112.6C84.2296 113.15 85.1296 113.05 85.6796 112.35C85.9296 112.05 86.1796 111.7 86.2296 111.6C86.2796 111.4 92.5796 110.25 93.5796 110.25C95.0296 110.25 92.4296 111.75 88.0296 113.5C86.1296 114.25 84.4296 114.95 84.2296 115.05C83.8796 115.2 83.9296 115.2 84.3296 115.15C84.5796 115.15 85.4796 115 86.3296 114.85C89.2796 114.4 94.2296 113.35 100.68 111.75C100.38 110.2 100.13 108.6 100.03 106.95L99.9796 107.05Z" fill="currentColor"/>
<path d="M61.7796 128.8C65.5796 127.75 73.1796 125.3 83.1296 121.95C91.6296 119.1 93.4796 118.4 93.3796 118.15C93.2296 117.7 93.4796 117.4 94.0796 117.25C94.7296 117.1 94.8296 117.55 94.1796 118C93.5796 118.4 93.7796 118.4 95.0796 117.85C95.6796 117.6 98.1296 116.75 100.43 115.95C100.83 115.8 101.23 115.7 101.63 115.55C101.48 115.05 101.33 114.55 101.18 114.05C101.08 114.05 100.93 114.05 100.68 114.05C100.28 113.95 98.5296 114.5 94.1796 115.95C89.9796 117.4 88.1796 117.9 88.0796 117.75C87.8296 117.4 87.0296 117.6 86.8296 118.1C86.6296 118.5 85.8796 118.8 82.7296 119.95C71.4296 124 56.4796 129.75 55.9796 130.2C55.8296 130.35 58.1296 129.8 61.7796 128.75V128.8Z" fill="currentColor"/>
<path d="M101.98 116.5C94.9297 119.7 85.7297 124 82.3797 125.65C81.3297 126.15 80.2797 126.6 79.9297 126.6C79.0297 126.6 78.1297 127.05 77.6297 127.75C77.2297 128.3 75.1797 129.4 65.1797 134.4C58.5797 137.7 52.9797 140.5 52.7797 140.7C52.2297 141.1 55.8797 139.85 60.2297 138.05C64.3297 136.35 68.7297 134.35 73.7297 131.95C75.5797 131.05 77.1797 130.3 77.1797 130.35C77.1797 130.35 77.3797 130.7 77.5297 131C78.2797 132.55 80.4797 133.25 81.7797 132.4C83.1797 131.5 83.5797 129.6 82.6797 128.3L82.2297 127.65L83.8797 126.85C91.2297 123.25 98.1796 120 99.8797 119.35C100.13 119.25 100.28 119 100.28 118.8C100.28 118.25 101.08 117.9 101.68 118.2C101.83 118.3 102.03 118.3 102.48 118.2C102.28 117.65 102.08 117.15 101.88 116.6L101.98 116.5ZM94.7797 120.7C94.7297 120.85 94.5297 120.95 94.2797 121C93.9797 121.05 93.8797 121 93.9797 120.75C94.1297 120.4 94.8797 120.35 94.7797 120.65V120.7Z" fill="currentColor"/>
<path d="M103.48 120.25C96.9295 124.05 91.6295 127.45 83.8795 132.55C81.9795 133.8 81.7795 133.9 81.4795 133.6C80.7295 132.95 79.6295 133.7 79.8795 134.7C79.9795 135.1 79.7795 135.3 78.2295 136.35C75.8795 137.9 74.5295 138.9 74.6795 138.9C75.0795 138.9 79.9295 136.2 86.8295 132.15C96.1795 126.65 97.1295 126.05 97.2795 125.75C97.3295 125.6 97.5295 125.5 97.6795 125.5C97.8295 125.5 100.68 123.95 104.28 121.9C103.98 121.4 103.73 120.85 103.48 120.3V120.25Z" fill="currentColor"/>
<path d="M104.88 122.95C104.58 123.15 104.33 123.45 104.33 123.65C104.33 123.85 104.479 124.1 104.63 124.3C104.93 124.6 104.78 124.75 102.98 126.05C101.88 126.8 97.1795 130.25 92.5295 133.7C75.4295 146.25 72.8795 148.15 70.3295 150.25C67.7295 152.4 64.0795 155.75 64.1795 155.9C64.2795 156 66.9295 154.65 69.0295 153.45C71.4295 152.05 74.1295 150.2 78.6795 146.9C80.8295 145.35 82.6795 144.05 82.7295 144.05C82.7795 144.05 82.8295 144.2 82.8295 144.4C82.8295 144.9 83.6295 145.6 84.1295 145.6C84.6295 145.6 85.1795 144.8 85.0295 144.15C84.9295 143.9 84.7295 143.5 84.5295 143.25C84.3295 143 84.1795 142.85 84.2295 142.8C84.2295 142.8 86.2295 141.3 88.6295 139.55C91.0295 137.8 94.6795 135.1 96.7295 133.55C103.83 128.25 104.23 128 104.73 128.55C105.18 129 104.93 129.55 103.78 130.75C102.78 131.75 102.53 131.9 102.28 131.75C102.08 131.65 101.78 131.6 101.63 131.65C101.28 131.8 101.229 132.5 101.63 132.6C101.78 132.6 100.68 133.8 99.1295 135.25C96.0795 138.1 83.1295 151.45 82.4295 152.4C82.0295 153 82.0295 153 82.9295 152.25C86.2295 149.6 99.4295 137.7 108.98 128.8C107.43 127 106.08 125.05 104.93 123L104.88 122.95Z" fill="currentColor"/>
<path d="M99.4297 145.6C99.8297 146.05 100.13 146.1 100.48 145.75C100.83 145.4 100.78 144.95 100.33 144.55C99.9797 144.2 100.03 144.15 102.88 141.1C106.03 137.75 109.98 133.65 111.88 131.8C111.13 131.1 110.43 130.4 109.73 129.65C107.88 131.6 106.48 133.25 104.08 136.2C100.88 140.05 101.13 139.8 100.93 139.5C100.83 139.35 100.58 139.25 100.33 139.3C99.7797 139.4 99.6297 140.15 100.08 140.5C100.38 140.7 99.7297 141.55 94.2297 148.1C87.5297 156.15 86.2797 157.6 81.2797 163.3C77.0297 168.2 76.9797 168.3 79.4297 166C81.6797 163.95 88.5297 156.7 95.0297 149.65C99.0297 145.3 99.1297 145.2 99.4797 145.55L99.4297 145.6Z" fill="currentColor"/>
<path d="M118.13 136.6C116.88 135.85 115.68 135 114.53 134.1C113.93 135 113.48 135.8 113.13 136.35C112.68 137.1 112.18 137.75 112.03 137.75C111.68 137.75 111.48 138.15 111.73 138.35C111.88 138.5 111.63 139.1 110.98 140.45C110.48 141.5 110.08 142.35 110.13 142.35C110.18 142.35 110.73 141.7 111.33 140.85C111.98 140.05 112.88 138.95 113.33 138.4C114.23 137.5 114.23 137.45 114.13 138C114.08 138.3 112.68 141.3 111.08 144.6C109.48 147.9 107.63 151.75 106.98 153.05C105.93 155.35 105.63 155.75 105.33 155.3C105.28 155.2 104.88 155.1 104.48 155.1C103.08 155.1 101.83 156.75 102.08 158.25C102.23 159 103.18 160.05 103.73 160.05C104.28 160.05 104.18 160.05 103.83 160.95C103.43 161.95 103.48 161.95 104.08 161.05C104.38 160.6 104.88 160.05 105.23 159.85C105.98 159.35 106.98 157.65 106.83 156.95C106.73 156.55 107.48 155.2 110.23 150.55C114.08 144 116.08 140.45 118.08 136.5L118.13 136.6Z" fill="currentColor"/>
<path d="M112.38 132.3C111.98 132.9 111.38 133.7 110.58 134.8C109.18 136.65 107.48 139 106.78 140C106.08 141 101.88 146.9 97.4296 153.15C87.7296 166.75 87.0296 167.75 86.6296 168.8C86.2796 169.85 86.2796 169.95 86.7296 169.95C87.4296 169.95 88.6796 168.55 91.9796 164.1C97.2296 157.05 106.78 143.6 113.73 133.55C113.23 133.15 112.78 132.75 112.33 132.35L112.38 132.3Z" fill="currentColor"/>
<path d="M119.03 156.45C119.03 156.25 118.88 155.75 118.63 155.4L118.23 154.7L119.58 150.85C120.33 148.75 121.58 145.1 122.38 142.8C122.88 141.4 123.28 140.15 123.58 139.35C123.13 139.2 122.73 139 122.33 138.8C121.68 140.7 120.58 143.8 118.78 148.8C117.98 151 117.73 151.5 117.53 151.4C116.73 151.05 116.03 151.1 115.58 151.55C115.33 151.8 115.18 151.85 115.28 151.7C115.58 150.95 119.38 142.7 121.13 139.2C121.28 138.95 121.38 138.7 121.48 138.45C120.73 138.1 120.03 137.7 119.33 137.3C117.53 140.85 116.93 141.85 116.73 141.75C116.38 141.5 115.78 141.85 115.78 142.35C115.78 142.85 115.93 142.85 116.13 142.95C116.38 143.1 116.43 143.3 116.33 143.6C116.23 143.85 113.13 150.85 109.48 159.25C105.78 167.65 102.13 176 101.38 177.9C100.13 181 97.6797 188.25 97.6797 188.8C97.6797 189.5 103.18 178.9 105.68 173.3C107.13 170.1 111.98 159.15 113.83 154.95L114.93 152.5L115.08 153.3C115.23 154.25 115.68 154.8 116.28 154.8C116.88 154.8 117.23 153.35 112.03 168.25C109.18 176.45 108.38 179.05 108.38 180.25C108.38 181.45 108.38 180.9 108.78 180.55C109.38 180 110.68 177.1 111.93 173.55C112.98 170.5 113.03 170.35 113.53 170.4C113.88 170.4 114.08 170.3 114.33 169.9C114.58 169.4 114.58 169.35 114.18 168.8L113.78 168.25L115.38 163.7C116.28 161.2 117.08 158.85 117.13 158.45C117.28 157.85 117.43 157.8 117.93 157.7C118.58 157.65 119.13 157.05 119.13 156.45H119.03Z" fill="currentColor"/>
<path d="M121.429 149.25C119.179 157.6 117.929 163.85 118.129 165.2C118.229 165.7 119.179 162.8 121.029 156.65C121.729 154.35 123.379 149.05 124.729 144.95C125.329 143.1 125.829 141.6 126.229 140.4C125.429 140.15 124.679 139.85 123.929 139.55C123.829 140 123.679 140.6 123.529 141.25C123.129 142.65 122.179 146.25 121.429 149.25Z" fill="currentColor"/>
<path d="M134.13 160C133.73 160.1 133.68 160 133.78 159.4C134.08 157.45 134.88 149.3 135.48 142.1C135.03 142.1 134.63 142.05 134.18 142C133.73 149.25 133.18 160.5 133.03 164.9L132.93 167.5L133.18 165.3C133.33 164.1 133.43 162.6 133.43 161.95C133.43 160.85 133.43 160.8 133.83 161.15C134.33 161.6 134.88 161.5 134.98 160.9C135.08 160.3 134.68 159.85 134.08 159.95L134.13 160Z" fill="currentColor"/>
<path d="M130.08 141.35C129.33 141.2 128.53 141 127.78 140.8C127.08 144.1 126.33 147.5 125.78 150.1C122.43 165.55 122.08 167.15 121.23 171.65C119.83 178.8 117.78 191.7 117.93 192.2C118.08 192.55 123.38 170.1 126.03 158.15C128.33 147.55 128.83 145.3 129.43 143.25C129.68 142.35 129.88 141.75 130.13 141.4L130.08 141.35Z" fill="currentColor"/>
<path d="M130.83 141.5C130.93 142.65 130.58 146.05 129.93 150.55C129.18 155.65 128.83 158.95 128.68 162.3C128.58 165.6 128.78 165.3 129.43 161.1C129.68 159.45 130.53 155.05 131.28 151.3C131.83 148.6 132.48 144.85 132.98 141.85C132.23 141.75 131.53 141.65 130.83 141.5Z" fill="currentColor"/>
<path d="M142.13 167.55C141.68 162 141.08 151.6 140.78 145.3C140.73 144.1 140.68 143.05 140.63 142.15C140.43 142.15 140.23 142.15 139.98 142.15C139.98 142.35 139.83 142.5 139.68 142.5C139.53 142.5 139.43 142.35 139.38 142.15C138.93 142.15 138.48 142.15 137.98 142.15C137.48 142.15 136.98 142.15 136.48 142.15C136.48 143.4 136.38 146.9 136.28 150.25C136.18 153.85 136.13 156.95 136.13 157.15C136.13 157.35 136.18 158.35 136.23 159.35C136.33 160.6 136.23 161.4 136.08 161.9C135.93 162.45 135.93 162.75 136.08 163.05C136.18 163.3 136.33 163.95 136.38 164.55C136.48 165.15 136.63 166.05 136.78 166.6C137.08 167.75 137.58 168 137.58 167C137.58 166.65 137.68 164.8 137.83 162.8C137.98 160.2 138.13 159.2 138.33 159.2C138.53 159.2 138.73 158.95 138.98 158.7C139.28 158.3 139.38 158.05 139.28 157.55C139.13 156.6 138.78 156 138.38 155.9C138.08 155.8 138.03 155.55 138.03 153.75C138.03 151.95 138.23 149.1 138.43 149.2C138.53 149.25 138.63 149.85 138.68 150.6C138.78 151.35 138.98 153.25 139.18 154.85C139.38 156.5 139.68 159.25 139.83 161C140.53 168.05 141.33 173.15 142.18 175.65L142.58 176.8L142.48 174.5C142.43 173.25 142.23 170.15 142.03 167.6L142.13 167.55ZM137.43 143.65C137.28 143.4 137.43 142.9 137.73 142.9C138.03 142.9 137.93 143.1 137.93 143.4C137.93 143.9 137.68 144.05 137.43 143.7V143.65Z" fill="currentColor"/>
<path d="M150.78 193.4C150.28 187.9 148.93 177.65 147.13 166.25C146.68 163.25 145.88 158.05 145.43 154.65C144.93 151.3 144.18 145.95 143.73 142.85C143.68 142.5 143.63 142.15 143.58 141.8C142.93 141.9 142.23 141.95 141.58 142.05C142.18 146.1 142.93 151.2 143.08 151.95C143.28 152.75 143.33 152.85 143.83 152.85C144.93 152.85 145.03 154.05 143.98 154.4C143.68 154.5 143.43 154.65 143.43 154.75C143.43 154.85 143.73 156.85 144.08 159.25C144.43 161.65 144.73 163.7 144.73 163.8C144.73 163.9 144.58 163.9 144.33 163.8C143.78 163.6 142.83 164.05 142.53 164.7C142.03 165.65 142.18 166.7 142.88 167.5C143.53 168.2 144.03 168.35 144.93 168.05C145.43 167.9 145.43 167.95 145.58 168.9C145.83 170.55 147.73 181 148.43 184.4C149.73 190.65 150.63 194.65 150.83 195.05L151.03 195.45L150.93 195.05C150.93 194.85 150.78 194.05 150.73 193.3L150.78 193.4Z" fill="currentColor"/>
<path d="M147.43 141.55C147.43 141.3 147.43 141.15 147.43 141.05C146.68 141.25 145.88 141.4 145.08 141.55C145.23 142.35 145.43 143.3 145.63 144.3C148.08 156.7 151.68 171 154.63 180C155.23 181.8 155.73 183.3 155.78 183.2C155.93 183.05 154.63 176.15 153.33 170.05C150.98 159.05 147.43 142.2 147.38 141.5L147.43 141.55Z" fill="currentColor"/>
<path d="M151.18 143.55C150.78 142.05 150.48 141 150.28 140.2C149.48 140.45 148.68 140.7 147.88 140.95C148.43 141.3 149.28 143.5 151.18 149.1C152.08 151.75 153.18 154.85 153.63 155.95C155.13 159.65 157.13 163.3 156.13 160.45C155.53 158.8 153.08 150.5 151.18 143.6V143.55Z" fill="currentColor"/>
<path d="M182.98 167.15C182.33 165.75 176.88 157.45 171.38 149.45C167.63 144 164.08 138.6 163.38 137.3C162.18 135.15 162.88 134.75 164.73 136.6C165.38 137.3 165.73 137.75 165.58 137.75C165.18 137.75 164.63 138.35 164.63 138.75C164.63 139.15 165.38 140.05 165.78 140.05C166.18 140.05 166.63 139.65 166.78 139.25C166.93 138.9 170.48 142.5 173.43 145.95C175.78 148.75 176.48 149.4 175.83 148.45C174.43 146.35 173.68 145.1 172.83 143.5C172.28 142.5 171.63 141.4 171.38 141.05C170.98 140.45 167.73 136.75 163.73 132.35C162.38 133.6 160.88 134.75 159.38 135.75C162.18 140.1 164.23 143.3 164.28 143.4C164.38 143.55 164.28 143.8 164.03 144.05L163.68 144.5L163.43 144C162.78 142.75 160.38 138.85 158.63 136.15C157.38 136.95 156.08 137.7 154.78 138.35C161.03 151.25 175.23 179.7 176.58 182.05C178.08 184.6 179.08 186 179.08 185.6C179.08 185.2 177.93 181.5 177.13 179.4C176.63 178.25 174.08 172.65 171.33 167.05C168.58 161.4 165.53 154.95 164.43 152.75C163.38 150.55 161.93 147.5 161.23 146.05C158.48 140.3 158.48 140.05 161.23 144.85C163.98 149.7 169.28 158 171.43 160.75C172.68 162.4 174.08 163.9 174.28 163.75C174.68 163.35 172.43 159.1 166.93 149.8L164.63 145.9L165.13 145.65C165.38 145.5 165.63 145.4 165.68 145.45C165.78 145.55 172.48 155.3 177.18 162.1C179.93 166.1 181.43 168.1 182.33 168.95C183.03 169.6 183.68 170.15 183.78 170.15C184.13 170.15 183.78 168.8 182.98 167.15Z" fill="currentColor"/>
<path d="M198.429 151.45C198.229 151.45 198.029 151.45 197.929 151.6C197.829 151.8 197.729 151.8 197.429 151.6C196.479 150.85 189.629 145 180.679 137.25C178.079 135 175.729 133 175.479 132.8C175.179 132.55 175.029 132.25 175.029 131.8C175.029 131 174.279 130.35 173.329 130.35C172.729 130.35 172.379 130.1 170.479 128.25C169.829 127.6 169.229 127.05 168.879 126.65C168.379 127.35 167.829 128.05 167.229 128.7C170.579 131.45 175.529 135.55 176.629 136.5C177.179 137 177.179 137 176.879 137.35C176.379 137.85 176.529 138.7 177.129 138.7C177.729 138.7 177.679 138.55 178.029 137.85C178.079 137.75 179.279 139.15 179.629 139.75C179.829 140.1 180.129 140.3 180.479 140.35C180.829 140.35 181.029 140.55 181.079 140.8C181.179 141.3 181.479 141.5 181.779 141.25C181.929 141.1 182.979 141.9 185.529 144C201.329 157.3 200.979 157 202.429 157.75C203.329 158.2 203.629 158.25 203.629 157.9C203.629 157.4 202.579 156.2 200.679 154.5C198.879 152.9 198.679 152.65 198.729 152.1C198.729 151.65 198.679 151.5 198.429 151.45Z" fill="currentColor"/>
<path d="M172.38 123.25C174.33 124.35 177.78 126.3 180.13 127.6C187.48 131.8 190.23 133.3 195.68 136.25C201.68 139.5 205.63 141.5 205.73 141.4C205.93 141.2 200.63 137.7 193.43 133.25C180.18 125.15 174.18 121.55 172.78 120.9C172.68 120.9 172.58 120.8 172.48 120.7C172.18 121.35 171.83 122 171.43 122.65C171.78 122.85 172.13 123.05 172.43 123.2L172.38 123.25Z" fill="currentColor"/>
<path d="M195.729 93.6498C196.979 93.3998 198.129 93.2498 198.329 93.2998C198.529 93.3498 198.879 93.2998 199.079 93.1498C199.479 92.9498 204.479 91.8998 217.579 89.3498C222.329 88.4498 224.93 86.7498 224.93 86.7498C224.93 86.7498 220.529 86.1498 206.029 88.9498C199.729 90.1498 184.779 92.7998 184.779 92.7998C184.779 92.7998 192.53 89.1498 196.68 88.1498C196.68 88.1498 185.479 89.7998 174.479 92.4498C175.029 94.1498 175.429 95.8498 175.729 97.6498C177.779 97.0998 181.829 96.1998 183.079 96.0498C184.479 95.8498 191.229 94.5498 195.729 93.6498ZM189.279 92.6998C189.729 92.8498 189.63 93.6498 189.13 93.8998C188.53 94.2498 187.98 94.0998 187.93 93.5498C187.83 92.7498 188.479 92.3498 189.279 92.6498V92.6998Z" fill="currentColor"/>
<path d="M217.48 101.7C214.58 101.55 210.03 101.35 207.43 101.3C203.18 101.2 202.68 101.15 202.68 100.85C202.68 100.4 202.28 100.05 201.83 100.05C201.38 100.05 200.98 100.4 200.98 100.85C200.98 101.3 199.38 101.3 190.98 101.5C186.68 101.6 177.48 101.95 176.23 102.05C176.23 102.7 176.28 103.35 176.28 104.05C176.28 106.05 176.13 108 175.83 109.9C177.58 110 181.08 110.55 186.83 111.5C200.38 113.75 209.93 115.15 212.28 115.25C214.13 115.35 215.13 115.25 215.13 115.05C215.13 114.85 213.38 113.95 211.83 113.5C208.53 112.6 200.58 111.2 187.08 109.2C177.23 107.7 176.38 107.6 176.28 107.55C176.28 107.55 176.28 107.35 176.38 107.2C176.53 106.95 177.18 107 180.33 107.25C182.43 107.4 185.73 107.65 187.63 107.75C191.93 108 198.63 108.65 202.98 109.25C204.78 109.5 208.63 109.65 208.03 109.45C207.78 109.35 207.08 109.2 206.43 109.05C205.38 108.85 205.33 108.8 205.63 108.4C206.48 107.2 205.23 105.65 203.73 106.05C203.08 106.2 202.53 106.8 202.38 107.5L202.28 108.05L200.43 107.7C195.63 106.8 190.53 106 185.78 105.45C180.63 104.85 179.18 104.6 179.18 104.3C179.18 104 183.28 103.4 186.83 103.25C200.48 102.7 211.53 102.4 217.98 102.35C221.68 102.35 225.63 102.1 223.53 102C223.13 102 220.38 101.85 217.43 101.7H217.48Z" fill="currentColor"/>
<path d="M191.23 114.95C191.08 114.9 188.88 114.3 186.38 113.65C181.63 112.45 177.33 111.25 175.68 110.7C175.58 111.3 175.43 111.9 175.33 112.5C176.13 112.7 176.83 112.9 177.43 113.1C179.33 113.6 183.53 114.65 186.78 115.35C190.03 116.1 194.98 117.2 197.73 117.8C203.23 119.05 204.53 119.3 204.68 119C204.83 118.75 203.58 118.2 201.43 117.55C199.93 117.1 199.83 117.05 200.08 116.65C200.38 116.15 200.08 115.65 199.28 115.55C198.83 115.55 198.63 115.55 198.48 115.9C198.38 116.1 198.33 116.4 198.38 116.45C198.43 116.55 198.48 116.65 198.38 116.65C198.18 116.65 192.68 115.25 192.58 115.15C192.53 115.15 192.58 115 192.73 114.85C193.13 114.45 192.98 113.95 192.48 113.7C192.08 113.55 191.93 113.55 191.63 113.85C191.38 114.1 191.28 114.35 191.38 114.6C191.48 114.9 191.43 114.95 191.23 114.85V114.95Z" fill="currentColor"/>
<path d="M207.88 150.6C206.88 149.85 203.38 147.4 200.18 145.2C194.68 141.4 194.28 141.15 194.38 140.7C194.53 140 194.03 139.4 193.33 139.4C192.63 139.4 192.73 139.5 192.68 139.6C192.48 139.9 192.38 139.8 189.13 137.55C184.98 134.65 179.13 130.55 178.98 130.4C178.88 130.3 178.93 130.05 178.98 129.75C179.13 129.35 179.13 129.2 178.83 128.85C178.38 128.4 178.03 128.35 177.68 128.75C177.53 128.9 177.33 129.05 177.18 129C177.03 129 175.63 128.05 174.13 126.95C173.48 126.5 172.08 125.55 170.38 124.4C170.13 124.75 169.93 125.1 169.68 125.45C169.88 125.4 170.23 125.6 170.33 125.9C170.48 126.3 170.43 126.35 169.93 126.2C169.63 126.15 169.48 125.95 169.53 125.75C169.43 125.95 169.28 126.1 169.13 126.3C169.78 126.7 170.88 127.45 172.68 128.8C175.18 130.7 175.43 130.9 175.43 131.45C175.43 132 175.63 132.25 176.08 132.75C176.73 133.45 177.13 133.55 178.03 133.25C178.43 133.1 178.68 133.15 179.38 133.65C179.83 134 180.23 134.4 180.33 134.7C180.43 135.1 180.58 135.2 180.98 135.15C181.43 135.15 182.53 135.8 186.98 138.95C192.23 142.65 192.43 142.8 192.48 143.45C192.53 144.1 192.58 144.1 193.38 144.15C194.18 144.15 194.63 144.45 199.68 147.95C205.08 151.7 207.28 153.15 209.13 154.05C210.28 154.65 212.03 155.2 212.28 155.1C212.63 155 209.83 152.15 207.88 150.65V150.6Z" fill="currentColor"/>
<path d="M191.73 125.9C189.83 125.05 189.38 124.8 189.38 124.45C189.38 123.55 187.98 122.9 187.13 123.45C186.83 123.6 186.63 123.6 186.13 123.35C185.78 123.2 185.08 122.85 184.53 122.65C183.83 122.35 183.63 122.15 183.73 121.95C183.78 121.8 183.88 121.45 183.98 121.2C184.03 120.95 184.28 120.7 184.48 120.6C184.73 120.5 184.93 120.25 184.98 120C185.08 119.55 183.83 119.1 198.88 124.55C211.48 129.1 217.73 131.3 218.93 131.7C221.03 132.3 221.83 131.95 220.58 131C219.03 129.85 216.28 128.7 207.53 125.55C204.38 124.45 201.73 123.45 201.63 123.35C201.53 123.25 201.28 123.15 201.08 123.15C200.88 123.15 198.93 122.5 196.73 121.75C193.08 120.5 192.78 120.35 192.93 120C193.23 119.4 192.93 118.7 192.43 118.7C191.93 118.7 191.93 118.8 191.83 119.3C191.78 119.6 191.63 119.9 191.53 119.9C191.43 119.9 187.33 118.6 182.43 116.95C179.33 115.9 176.48 115 174.73 114.4C174.58 114.85 174.48 115.3 174.33 115.75C175.33 116.1 176.33 116.45 177.43 116.85C180.83 118.1 183.63 119.05 183.68 119.05C183.73 119.05 183.73 119.3 183.73 119.55V120.05L183.23 119.65C182.48 119.05 181.23 119.1 180.48 119.75L179.93 120.25L178.18 119.3C176.98 118.65 175.13 117.8 173.83 117.2C173.63 117.75 173.38 118.3 173.18 118.85C173.33 118.95 173.53 119.05 173.78 119.15C175.68 120.1 176.43 120.65 175.78 120.65C175.13 120.65 175.58 120.85 175.58 121.1C175.58 121.8 176.33 122 176.78 121.4L177.13 121L179.48 122.1C180.78 122.7 182.78 123.6 183.98 124.15C185.68 124.95 186.23 125.25 186.48 125.75C186.88 126.4 187.78 126.75 188.33 126.45C188.58 126.3 189.08 126.45 190.28 127.05C191.18 127.45 192.53 128.1 193.33 128.45C194.63 129.05 194.73 129.15 194.48 129.45C193.98 130 193.93 130.45 194.23 131.15C194.48 131.7 194.58 131.8 195.18 131.8C195.78 131.8 196.63 131.1 196.63 130.45C196.63 129.8 196.63 130.1 196.68 130.1C196.73 130.1 198.48 130.9 200.63 131.95C207.43 135.15 214.73 138.2 221.38 140.6C222.68 141.1 223.78 141.4 223.83 141.35C223.98 141.2 198.13 128.75 191.68 125.9H191.73Z" fill="currentColor"/>
<path d="M195.48 158.8C181.48 144 177.83 140.15 170.53 132.75C169.18 131.4 167.93 130.15 166.93 129.1C166.43 129.65 165.93 130.25 165.38 130.8C166.33 131.8 167.13 132.65 167.63 133.15C169.18 134.75 170.48 136.05 170.63 136C170.98 135.9 171.68 136.5 171.68 136.9C171.68 137.3 173.78 139.4 177.53 143.25C180.73 146.5 183.48 149.45 183.63 149.75C183.78 150.1 184.03 150.35 184.18 150.35C184.33 150.35 186.78 152.6 189.78 155.65C192.68 158.55 196.53 162.3 198.38 163.95C202.38 167.6 207.58 172 207.73 171.9C207.73 171.9 207.08 171.1 206.18 170.15C205.28 169.25 200.48 164.15 195.53 158.9L195.48 158.8ZM174.43 138.65C174.28 138.5 174.18 138.25 174.23 138.15C174.43 137.9 174.88 137.95 175.03 138.3C175.18 138.8 174.78 139.05 174.43 138.65Z" fill="currentColor"/>
<path d="M202.18 96.1498L201.18 96.2998L201.33 95.6998C201.43 95.2498 201.33 95.0498 201.08 94.6998C200.83 94.4498 200.53 94.2998 200.38 94.2998C199.83 94.2998 199.13 95.1998 199.13 95.8498V96.4498L198.63 95.9498C197.98 95.2998 197.28 95.2998 196.63 96.0498L196.08 96.5998L191.33 96.9998C188.73 97.1998 184.13 97.6498 181.08 97.9498C178.43 98.1998 176.83 98.3498 175.88 98.3998C175.93 98.8998 176.03 99.3498 176.08 99.8498C177.18 99.7498 178.33 99.6998 179.48 99.5998C181.73 99.4498 186.48 99.0998 190.03 98.8498C193.58 98.5998 196.73 98.4498 197.03 98.4998C197.33 98.5998 197.83 98.4998 198.13 98.3998C198.43 98.2998 200.48 98.0498 202.68 97.8998C214.23 97.0498 230.28 95.3498 230.68 94.9498C231.13 94.4998 207.73 95.5498 202.23 96.1998L202.18 96.1498Z" fill="currentColor"/>
<path d="M174.03 90.95C177.13 89.8 180.83 88.4 185.28 86.75C186.23 86.35 186.43 86.25 186.48 85.8C186.58 84.9 188.28 84.3 188.53 85.05C188.68 85.5 188.53 85.55 193.48 83.65C203.58 79.75 222.08 71.7 221.78 71.35C221.48 71.05 206.93 76.25 187.78 83.5C185.68 84.3 182.53 85.45 180.83 86.05C179.08 86.65 176.73 87.5 175.58 87.95C174.43 88.4 173.48 88.7 173.43 88.65C173.28 88.5 173.33 88.5 175.23 87.5C176.18 87 177.13 86.7 177.28 86.75C177.48 86.85 177.58 86.75 177.58 86.55C177.58 86.35 178.13 85.95 179.33 85.4C180.28 84.95 184.13 83.05 187.83 81.2C191.53 79.35 194.78 77.85 195.03 77.85C195.28 77.85 195.83 77.55 196.38 77.1C196.88 76.7 197.33 76.35 197.38 76.35C197.58 76.35 205.68 71.85 210.18 69.25C210.88 68.85 213.23 67.5 215.43 66.3C218.88 64.35 224.43 61.1 224.68 60.9C224.88 60.7 224.53 60.7 224.13 60.9C218.98 63.05 212.58 66.25 203.38 71.25C199.53 73.3 196.23 75 195.98 75C195.73 75 195.23 75.2 194.88 75.5C194.38 75.85 194.03 75.95 193.73 75.85C193.38 75.75 193.23 75.85 193.08 76.3C192.93 76.75 192.23 77.2 188.83 79C186.58 80.15 184.33 81.35 183.83 81.55C183.28 81.8 182.93 82.1 183.03 82.25C183.08 82.4 183.03 82.5 182.93 82.5C182.83 82.5 182.73 82.4 182.73 82.35C182.73 82.15 181.18 82.85 172.38 87.2C172.98 88.45 173.58 89.75 174.03 91.1V90.95Z" fill="currentColor"/>
<path d="M214.28 44.3498C214.18 44.3498 212.68 45.2498 210.98 46.3498C209.28 47.4498 207.13 48.8998 206.23 49.5498C200.78 53.4998 180.38 69.3498 180.28 69.7498C180.28 69.8998 180.08 69.9998 179.98 69.9998C179.88 69.9998 178.63 70.8998 177.23 71.9498C175.88 73.0498 172.98 75.3498 170.78 77.0998C169.73 77.8998 168.68 78.7998 167.58 79.6498C168.08 80.2498 168.58 80.8998 169.03 81.5498C169.48 81.1498 170.83 80.0998 172.38 78.9498C179.38 73.6998 193.58 62.4498 203.88 53.9498C208.53 50.0998 214.78 44.2998 214.28 44.2998V44.3498ZM169.48 80.1998C169.18 79.9498 169.08 79.3998 169.33 79.1498C169.58 78.8998 170.23 79.1498 170.28 79.5498C170.38 80.0998 169.83 80.5498 169.48 80.1998Z" fill="currentColor"/>
<path d="M190.08 70.8C183.53 75 178.33 78.3 176.78 79.15C175.73 79.75 175.43 79.8 175.08 79.65C174.88 79.55 174.53 79.5 174.33 79.55C173.93 79.65 173.93 79.75 173.88 80.45C173.88 80.7 173.33 81.05 172.03 81.65C171.03 82.1 170.03 82.5 169.83 82.5C169.78 82.5 169.73 82.5 169.63 82.5C169.98 83 170.28 83.5 170.58 84C170.88 83.65 171.43 83.55 171.98 83.9C172.28 84.1 172.38 84.05 172.68 83.85C172.88 83.7 174.48 82.7 176.28 81.6C178.08 80.55 180.88 78.75 182.53 77.65C185.13 75.9 185.58 75.65 186.13 75.75C186.93 75.9 187.98 75.15 188.28 74.35C188.38 74 188.58 73.6 188.78 73.45C188.93 73.3 192.73 70.6 197.23 67.5C201.73 64.35 205.53 61.7 205.63 61.6C205.73 61.5 205.08 61.75 204.18 62.2C202.08 63.25 195.93 66.95 189.98 70.8H190.08ZM173.48 82.9C173.33 82.9 173.38 82.25 173.48 82.1C173.68 81.9 174.48 81.95 174.48 82.1C174.48 82.25 173.68 82.9 173.43 82.9H173.48ZM175.73 81.05C175.43 80.95 175.43 80.9 175.73 80.65C176.13 80.35 176.63 80.3 176.63 80.55C176.63 80.8 176.08 81.2 175.73 81.05Z" fill="currentColor"/>
<path d="M163.98 75.8999C166.43 73.3499 168.48 70.9999 172.23 66.5999C174.18 64.3499 176.68 61.3999 177.88 60.0999C179.93 57.7999 186.58 50.1499 190.83 45.1499C192.98 42.6499 194.18 40.9999 194.18 40.5999C194.18 40.1999 193.53 40.2999 192.63 40.8999C191.83 41.3999 189.48 43.6999 188.63 44.7999C188.43 45.0999 188.08 45.3499 187.83 45.3999C187.53 45.3999 187.43 45.5999 187.43 45.8499C187.43 46.0999 186.48 47.3499 185.13 48.8999C180.78 53.9499 175.78 59.7999 171.63 64.7499C169.33 67.4999 166.13 71.2499 162.93 74.9499C163.28 75.2499 163.63 75.5499 163.98 75.8999Z" fill="currentColor"/>
<path d="M180.33 62.45C173.48 68.95 170.18 71.95 164.63 76.55C165.33 77.25 166.03 77.95 166.68 78.65C172.88 73 178.03 67.9 182.78 62.75C187.28 57.85 193.43 50.85 193.43 50.6C193.43 50.25 187.23 55.85 180.33 62.45Z" fill="currentColor"/>
<path d="M162.38 74.5002C166.03 70.0502 168.63 66.5502 170.88 63.1502L172.83 60.2002L170.23 62.9002C167.98 65.3002 166.03 66.9502 165.78 66.7502C165.63 66.6002 166.68 64.7502 169.18 60.6502C173.83 53.1002 177.03 47.4002 176.93 46.9002C176.83 46.4502 176.53 46.4002 176.23 46.7502C176.03 47.0002 176.03 47.1002 176.23 47.3502C176.48 47.7002 176.53 47.6502 173.63 51.3502C172.63 52.6002 171.08 54.4002 170.13 55.4002C168.33 57.3002 165.43 61.5002 159.58 70.8502C159.33 71.2002 159.13 71.6002 158.88 71.9502C160.08 72.7502 161.28 73.6002 162.38 74.5002ZM161.73 68.4502C161.98 67.9002 162.53 67.8002 162.98 68.2502C163.38 68.6002 163.38 68.7002 162.98 69.2502C162.38 70.1002 161.28 69.4002 161.73 68.4502Z" fill="currentColor"/>
<path d="M183.28 22.8002C183.18 22.7002 181.13 25.4502 179.63 27.8502C178.13 30.1502 175.13 35.2502 171.28 42.0502C169.28 45.6002 168.33 47.0002 167.98 47.1502C167.43 47.4002 167.18 47.8502 167.48 48.2002C167.63 48.3502 167.08 49.5002 165.38 52.4502C164.13 54.6502 162.98 56.5502 162.88 56.6502C162.78 56.7502 162.73 56.6502 162.73 56.3002C162.73 55.7502 162.13 55.0002 161.68 55.0002C161.23 55.0002 161.38 55.0002 161.38 54.9002C161.38 54.8002 162.18 53.1002 163.23 51.0502C167.43 42.3502 168.38 40.0002 168.23 39.1502C168.08 38.5002 166.23 41.7502 162.73 48.8502C159.68 55.0002 159.13 55.9502 158.78 55.9502C158.23 55.9502 157.88 56.7002 158.13 57.2502C158.28 57.5502 157.48 59.4002 154.13 66.4002C153.73 67.2002 153.38 68.0002 153.03 68.7002C153.43 68.8502 153.78 69.0502 154.18 69.2002C156.63 64.3502 160.08 57.6002 160.23 57.6502C160.83 57.9002 161.83 57.8502 162.18 57.6002C162.38 57.4502 162.58 57.3002 162.63 57.3002C162.68 57.3002 162.48 57.7002 162.13 58.2002C159.43 62.9502 157.13 66.8002 155.23 69.7002C155.98 70.1002 156.73 70.5002 157.48 70.9002C158.88 68.6002 160.23 66.3002 161.73 63.5502C163.08 61.1002 165.73 56.5002 167.63 53.2502C169.48 50.0502 171.28 46.9502 171.58 46.4002C171.98 45.6502 172.18 45.4502 172.38 45.6002C172.78 45.8502 173.08 45.8002 173.43 45.4502C173.78 45.1002 173.53 44.4002 173.08 44.4002C172.63 44.4002 172.78 44.4002 172.78 44.3502C172.78 44.3002 174.23 41.8002 175.93 38.7502C179.88 31.8002 181.88 27.8502 182.78 25.0002C183.18 23.7502 183.48 22.7002 183.43 22.7002L183.28 22.8002Z" fill="currentColor"/>
<path d="M150.88 52.95C151.18 52.9 151.43 52.9 151.43 52.95C151.43 53 151.28 53.7 151.08 54.5C150.88 55.3 150.38 57.4 150.03 59.15C149.43 61.85 148.83 64.5 148.13 67.15C148.93 67.35 149.73 67.6 150.48 67.9C150.93 66.75 152.18 63.1 153.33 59.75C157.58 47.4 160.03 40.85 165.78 26.9C167.23 23.45 168.38 20.55 168.33 20.5C168.33 20.5 168.08 20.85 167.83 21.35C167.63 21.85 166.53 24.3 165.43 26.8C159.83 39.15 152.98 56.15 150.48 63.85C149.83 65.85 149.83 65.25 150.48 63C150.78 61.9 151.58 58.95 152.33 56.4C153.03 53.85 154.23 49.5 155.03 46.65C156.43 41.65 156.48 41.55 156.83 41.85C157.13 42.1 157.28 42.15 157.53 42C158.18 41.6 157.93 40.45 157.18 40.15C157.03 40.15 157.93 36.9 159.43 31.75C162.03 23 162.38 21.65 162.58 19.75C162.73 18.35 162.48 18.05 161.93 18.9C161.18 19.95 159.98 22.8 158.88 26.2C157.23 31.15 152.63 47.15 152.03 50.15C151.83 51 151.78 51.05 151.28 51C150.63 50.9 149.73 51.6 149.73 52.2C149.73 52.8 150.18 53.1 150.88 53V52.95Z" fill="currentColor"/>
<path d="M163.83 40.1998C163.73 40.0498 160.63 46.5998 155.38 58.0498C153.48 62.1998 151.78 65.9498 150.88 67.9498C151.48 68.1498 152.03 68.3998 152.63 68.5998C154.08 65.1998 155.78 61.0498 156.98 58.0498C158.43 54.4498 158.73 53.8498 159.08 53.7498C159.53 53.6498 159.63 53.3498 159.28 52.9998C159.13 52.8498 159.63 51.3998 161.03 47.8498C163.33 41.9498 163.93 40.2998 163.83 40.1998Z" fill="currentColor"/>
<path d="M146.28 66.6498C146.43 66.0498 146.63 65.3998 146.78 64.7498C149.28 55.5498 149.33 55.3498 149.33 53.3498C149.33 51.3498 150.18 46.6998 151.58 40.8998C152.03 39.1498 152.33 37.6998 152.28 37.6998C152.03 37.4498 149.63 44.3998 148.33 49.1498C147.33 52.8498 146.43 58.0498 146.43 60.0998C146.43 62.1498 146.33 61.0998 146.13 61.1498C145.63 61.3498 145.48 60.7998 145.48 58.3498C145.48 55.8998 145.68 54.3998 147.28 43.7998C147.73 40.6998 148.13 37.9498 148.13 37.7498C148.13 37.5498 147.73 39.3498 147.28 41.7998C146.33 46.9998 145.93 48.7498 143.93 57.9998C143.08 61.8498 142.33 65.0498 142.23 65.1498C141.83 65.5998 142.13 61.2998 144.08 39.7498C145.58 23.1998 146.73 8.99977 146.58 8.64977C146.58 8.54977 146.18 10.4498 145.78 12.8998C143.08 29.8498 141.93 40.1498 140.78 58.2998C140.63 60.5998 140.43 63.3998 140.28 65.8998C142.28 65.9998 144.28 66.2998 146.18 66.6998L146.28 66.6498Z" fill="currentColor"/>
</svg>
